<mxfile host="app.diagrams.net" modified="2024-06-07T13:38:33.058Z" agent="Mozilla/5.0 (Macintosh; Intel Mac OS X 10_15_7) AppleWebKit/537.36 (KHTML, like Gecko) Chrome/125.0.0.0 Safari/537.36" etag="cB0T6tWFV17ZpAuiYujR" version="24.5.2" type="github">
  <diagram name="Page-1" id="AX_LEsxRzsq6VhchF0KD">
    <mxGraphModel dx="804" dy="1688" grid="1" gridSize="10" guides="1" tooltips="1" connect="1" arrows="1" fold="1" page="1" pageScale="1" pageWidth="827" pageHeight="1169" math="0" shadow="0">
      <root>
        <mxCell id="0" />
        <mxCell id="1" parent="0" />
        <mxCell id="Wg8RFO9psuNznAwOXjFQ-15" value="" style="image;html=1;image=img/lib/clip_art/people/Scientist_Man_128x128.png" parent="1" vertex="1">
          <mxGeometry x="30" y="-275.07" width="40" height="45" as="geometry" />
        </mxCell>
        <mxCell id="Wg8RFO9psuNznAwOXjFQ-22" value="&lt;font style=&quot;font-size: 11px;&quot;&gt;(1) Register&lt;/font&gt;" style="text;html=1;align=center;verticalAlign=middle;whiteSpace=wrap;rounded=0;" parent="1" vertex="1">
          <mxGeometry x="101.69999999999999" y="-277.5" width="90" height="20" as="geometry" />
        </mxCell>
        <mxCell id="Wg8RFO9psuNznAwOXjFQ-58" value="" style="group" parent="1" vertex="1" connectable="0">
          <mxGeometry x="474.5" y="-292" width="85" height="71" as="geometry" />
        </mxCell>
        <mxCell id="Wg8RFO9psuNznAwOXjFQ-23" value="" style="shape=actor;whiteSpace=wrap;html=1;" parent="Wg8RFO9psuNznAwOXjFQ-58" vertex="1">
          <mxGeometry x="26.5" width="32" height="45" as="geometry" />
        </mxCell>
        <mxCell id="gsRz97ZzxrVawrSgIsjQ-26" style="edgeStyle=orthogonalEdgeStyle;rounded=0;orthogonalLoop=1;jettySize=auto;html=1;exitX=0.5;exitY=1;exitDx=0;exitDy=0;entryX=0.622;entryY=-0.007;entryDx=0;entryDy=0;entryPerimeter=0;" parent="1" edge="1">
          <mxGeometry relative="1" as="geometry">
            <mxPoint x="517.78" y="37.65599999999995" as="targetPoint" />
            <mxPoint x="520" y="-80.75" as="sourcePoint" />
            <Array as="points">
              <mxPoint x="518" y="-81" />
            </Array>
          </mxGeometry>
        </mxCell>
        <mxCell id="gsRz97ZzxrVawrSgIsjQ-27" value="(9) Create Client Infrastructure" style="edgeLabel;html=1;align=center;verticalAlign=middle;resizable=0;points=[];" parent="gsRz97ZzxrVawrSgIsjQ-26" vertex="1" connectable="0">
          <mxGeometry x="-0.1817" relative="1" as="geometry">
            <mxPoint y="14" as="offset" />
          </mxGeometry>
        </mxCell>
        <mxCell id="Wg8RFO9psuNznAwOXjFQ-89" value="(15) FL Experiment&amp;nbsp;&lt;div&gt;Metrics to scientists&lt;/div&gt;" style="text;html=1;align=center;verticalAlign=middle;whiteSpace=wrap;rounded=0;fontSize=11;" parent="1" vertex="1">
          <mxGeometry x="60.999999999999986" y="157" width="140" height="20" as="geometry" />
        </mxCell>
        <mxCell id="gsRz97ZzxrVawrSgIsjQ-5" value="" style="group" parent="1" vertex="1" connectable="0">
          <mxGeometry x="220" y="-350" width="210" height="160" as="geometry" />
        </mxCell>
        <mxCell id="Wg8RFO9psuNznAwOXjFQ-13" value="" style="ellipse;shape=cloud;whiteSpace=wrap;html=1;" parent="gsRz97ZzxrVawrSgIsjQ-5" vertex="1">
          <mxGeometry x="-20" y="22.86" width="230" height="137.14" as="geometry" />
        </mxCell>
        <mxCell id="Wg8RFO9psuNznAwOXjFQ-12" value="Lab" style="shape=image;verticalLabelPosition=bottom;verticalAlign=top;imageAspect=0;aspect=fixed;image=data:image/png,iVBORw0KGgoAAAANSUhEUgAAAgYAAAJYCAYAAAAZuy4nAAAACXBIWXMAAAsTAAALEwEAmpwYAAAgAElEQVR4nOzdeZhU1Z0+8O/33KrqFRU1CigqRlY1ahQ1cYujcbe7Acu4xMFIBpeomeSX2N1opqYiAq0zmaiTqMQlJG6BEWhQMTOOSyKTREXBhU1FHVRwBaGququr7nl/f4AOMSxd1ffWqep+P8+TJ49a595Xoem3zz33HBEiIiIiIiIiIiIiIiIiIiIiIiIiIiIiIiIiIiIiIiIiomCo6wBERERbam1tHSUiw3xf9lG1+4rIPiKyD6D1qlBAjIjmVOUDEawFdI0xstQY88K+++776qWXXppz/K9Q0VgMiIjIqUQiMaCzs/NkQE8RwTdFZECx11LVLhE8q6oPA9GH29qufzXAqH0CiwEREZVcIpGIdXZ2nieiVwIYHeKtXjNGf6Wqd0+dOvXjEO/Ta7AYEBFRybS2tn7JWns5IJdLD2YGipBV1d9Fo5HJkydPfq2E9604LAZERBS6RCJR39GR/akIrhCRKlc5VDUPyN01NVXJZDL5nqsc5YzFgIiIQtXa2tqQz+PfVTHYdZbPqGpGBJOqq6tvTSaT1nWecsJiQEREobj22mv3yufztwAy1nWWbVGVZ6LR6CV8vPB/WAyIiChwzc3N3xDR2QD6u86yI6qaMkYvmjp16lzXWcqBcR2AiIh6l2uuaR0PyH9WQikQEQFQn8/7s6+5puUnAPr8D8ye6wBERNQ7ANBsNjsZwM+kwr6/qKqKyIn//d//ve/JJ580/+mnn4brTK5U1C8cERGVJwDa3Nw6A8CVrrP00KG+7w85+eST5vXVcsBiQEREPdbZ2XmTiFzuOkdADvH9/H4LFy7sk2sOWAyIiKhHmpubLwfkBtc5Anboscce6y9cuPAProOUGosBEREVrbW19Qxr8VvphYvZAZx4/PHHvfTMM88sd52llPr86ksiIirOddddNzyXyz8PoN51lrCoaioajRw6efLkN1xnKZVe1/CIiCh8ALSrK/+r3lwKRDa9ytjVlb+nL73GyEcJRERUsGw2OxHA91znKJF9H3/8ifULFz7zZ9dBSqHPNCAiIgrGpEmTBvq+vwyQnV1nKRVVzXieOWDKlClrXGcJGx8lEBFRQXzfv6UvlQIREQC1+bz9J9c5SoEzBkRE1G3Nzc2HALLYdQ4XVDUfjUZG9fYDlzhjQEREBdAfuk7gCoBILpef5DpH2DhjQERE3bJpbYF9C0DMdRZXVLWzurpqr2Qy+YnrLGHhjAEREXWL7+PKvlwKREQAVHd2dl3iOkeYWAyIiGiHbrnllioRXOo6R3nAP7hOECYWAyIi2qH33nvvOAC7uc5RDgAMa21tHeE6R1hYDIiIaIcAnOo6QzmxVhpcZwgLiwEREXUHi8FfsWe7ThAWvpVARETblUgkBnV0dL7rOkc52fx2Qr9kMpl3nSVonDEgIqLt6uzsPNl1hnIDoDqXy41ynSMMLAZERLRdgPbKb4A9Za09wnWGMLAYEBHRdqliX9cZyhGA4a4zhIHFgIiIdmQ/1wHKEaADXWcIA4sBERFtF8BisDWqwmJARER9yy233FIFYE/XOcoRIHu4zhAGFgMiItqmd999t1pV+Wp7H8JiQERE21RdXZ11naF8odftYSDCYkBERNvX5TpAuVJV33WGMLAYEBHRNiWTSSsivfIbYM+hV/53YTEgIqId4azBVgCac50hDCwGRES0XaryoesM5UhV3nadIQwsBkREtF2AvuI6QzkCZKnrDGFgMSAioh152XWAcuR5usx1hjCwGBAR0XapgjMGW8cZAyIi6pM4Y/AFqtp12GGHveE6RxhYDIiIaLuqq6uXichG1znKzB/OPfdcvq5IRER9TzKZ7FKV+a5zlBfMdp0gLCwGRES0Q8aYWa4zlAsAqK6ubnedIywsBkREtEOxWOwxVU25zlEezJ+TyeR7rlOEhcWAiIh2KJlMdorgYdc5yoHnyRzXGcIUcR2AiHoGgMo/H9WvM5/Z2Ud+Z0+xk0V+Z0h0Z7WyE9SvFnhRRT4q4kVgJCpAVCBRVY1asVEj8AVeDmpzoianvp8X9XKiNgfVnFjJqZiNanIbrMqnKtFPPeN9WuVHN0is61NNLuWWuX0A4P1axD/PdQ7H0lVVVfe4DhEmnrFNVIYwM+51LFk8QMQfCOsNENGBAhkA6EBRDBBgoKoZAMGuYtEPqk6/lo2iEyKfipj3RbBWYNeI6lqBWSOKtR68NcZ0ro3Fat7T5FJOR1ew5ubmPwFytOsc7uhNN9447RrXKcLEGQMiR5A4cqdMLrW/Irc/IF+G6P4CfFlE9s+8sGRfC4387ZcoRCAiogJg099y2wlERMRCq0WkWgR7ishXRMzmnJvy5sUXsVHp6sxLqnn4RypYJYo3ILpKRVcZ9d8QU72qOjLuXd10mh+VKVVNAPi96xyOdEQi5l9dhwib+z9RiHo5JEbt2tmJg6C5gyy8g0RwsIiOgGB319nKjRHJQmQVVF8x8F9Rjb7sRbKvxLyL3mBhKB/XXNPyjAiOcZ2j9PDzG2+88QeuU4SNMwZEAUEiYdJ25kjtsqNF5GAoDhLoQanO/KBNHzCy+cfoLf6ftmRFqkRkpAAjrZi4wBc/F5F87v6OVMuwpQL7ihjvFVG8WOf3e17bFn3qOnNfFImYRD7vP+46R4mla2pqbnIdohQ4Y0BUpMy1Q/cSK0dZyJEqehREjgCk3nWuvkIBiDErBP5fjMqzkMhfaofUvaSXLsq5ztYXNDc33wfIBa5zlIoxeum0adOmu85RChVZDGbOnOn96U9/imWzWS+fz3sikps+fXrGdS7qvTYtBnz1cFj/G/DxNVE9EoJBrnPRXzOKTkAWq5q/qOgfa6o+fVqTaz5ynas3am5u3llEXgJkH9dZwqeP3njjtDNdpyiVsi8GEydOrM0Bp4q1RykwEiIjRWR/EfG2/ByAD8SYVUbkDYgsUuDRu+++e4Wb1FTpNhWBRYdZG/2GACcK9DgI+rnORYVRAKrmFVE8qeo/WROr+oMml37iOldv0dzcfLyIPgmg1+6Jo6ofV1dXHZRMJte6zlIqZVkMEolE9ep33z0X1o4FcIqq1hRzHRVZBeBhY8ztd911V688N5uCk/rJyAMl75+6qQjIcRDd2XUmCpZRWFh5SY15UtQ+URvb6QlNLuJsYw+0tLRMsRatrnOEx8RvvHHqf7hOUUplVQwmTpxY29XVdZl63o8EGBjUdbHpWeTDEdWb7rzzzj8GdV2qbPjZ0TWZDz850QJnGuiZVmRf15motDbtv2CeEtFHIhH7SPXklW+6zlRp7rjjjuiqVavmA3Kq6yxBsxb//C//cmPSdY5SK5ticMkll1wmqtcDIb/CpfqYEbnsrrvuejvU+1BZ6rh25L7I2zOs+Geq6N9ZKW42inonFVkmIo9A9JH66gHPaPLpvOtMleBnP/tZzfvvf/AYgONdZwmKqt7c1jbtH13ncMF5Mbjsssv26srl7gZwSsluqpoyIq133nnnL1SV7431ctnWfUfkbfRcEe8cKzjYdR6qDCr4VNXMV/Vn1Qwc+nu9ekHWdaZy1tbW1u+TT9b9F4CjXGfpKVX99bRpUy/pq98fnBaD7373u42+tb8WkV2cBFB9rKaqKv7LX/6SW7T2Mtnr9huez8fOFWicZYB6SlU2iKDdwMyqqfZ+z7Mhtq6lpaW/tfYJET3UdZbi6awjjvjq+eeee67vOokrzorBJZdcMgEid8gX3i4oNVV9MeJ5Z06fPn2NyxzUc9nWIcPyNnYuVOIAvuI6D/VOKvhUVNtVMas2Fv1PloS/lkgkdunszP4GwNmusxQCADzPTK6qqvrnZB/fZdNJMbjkkkt+DJEbXdx7a1T17YjnnTR9+vQ3XGehwqDl4P4d6DoPKt+xwGjXeahvUZFP1OgDAr2nbtryRa7zlAsA2tLS0iqi11fGq4y6QRV/39bW1u46STkoeTGYMGHCFRb4Ranvu0OqK6tjsaNvu+22da6j0PYhkTCZ3IPfFIvvCKRp8za6RE4ZlVegco/E8vfWJ1d94DpPOZg0adJJvm8fAPAl11m2RVWXR6ORpsmTJ3Pfm81KWgwmTJhwPEQeBxAt5X27S1WfjHjeqdOnT+eWqmUo2zpkWA7Ri1Xk7y1kL9d5iLbGqOQh+qjR/D01++3ySF/fovnaa6/dK5fzbwLseer4ePAv6LAWbYMGDbjxhz/8YYfrMOWkZL9Il19++eCOzs7nVXWPUt2zGCryi7vvvvtK1zloEyROiKRza8aKlSsBOc51HqKCqHyoInd6Xuy2mhteWe06jkutra1HWWt/BsjXXWdRlQcjkcg1N9xwQ5/+NdmWkhWDSyZM+H1JX0ksEgDA2uNmzJix0HWWviydGDVAOrsmQrxLeSYBVToj8KE6T0T+vX7ayidc53GppaUlDshkAMNKfW9VfcoYvW7q1Kn88307SlIMJkyY0GSBOaW4VxCg+mrM8w7jI4XS62gdfoy1/pUiZpwVKctHTkQ9oljqCX5RUxX7jSaX9slXpQHopEmTjrfWfgeQc0SkLsTbfaAqv45Go3dOnjz5tRDv02uEXgwSiUT16nfeWQpgSNj3ChTQfM8995TNmxO9GRKjYpmurgvh69XQSn7/maj7VGWDip3hRapurp78ap99I6qtra3fhx+uP9fzcK4IjgKkx2eUALpaVZ4xRh4aMmTIvEsvvZQ/5BUg9GJwyXe/+4+w9t/Cvk/QAHzQr75+n1tvvZW7nYUEbbv1S6/70kQV+wMuJqS+ygh8Uf0PEa+tbtqyF13ncWnzTMJIAEdv+p8cpqq7i6C/tdhpy8WLqmoBfKKqH8mmWYGXALMwEtGFXDvQM+EXgwkTlgMYHvZ9wmBUL77rrrtmuM7R26QS++8h2cjVYvE9qLrZ9ZKoDKnKf4rxp9VPeeNJ11nKzcyZM70XX3xxF8/zdvI8b6OIfNLXNyIKS6jFYMKECd+wQMX+BlfVF+++666vus7RW3ReN2xILo8fGch3eHgR0bYZ1edU7bSa2AVzld/8qMRCLQaXTJjwAIDzwrxH2DQaPfTuO+5Y4jpHJdu0VXE0IYJvWVGnW2ATVRJVWSmQ6+uqz7+fBYFKJbStKhOJhAFwWljXLxXN57/pOkOl6rxu2JBUy9B78jay1IpcwFJAVBhAhkHkt+nOB17Z2DI8DqCcNgiiXiq0YrB67dqDxdWpiQGy1p7sOkOlySQO3jvVPOx2PycrAL2YhYCoZyAyUoCZ6dbhL2ZaD2hwnYd6t/AOt8jljg/t2iUEkeMTiUTMdY5KkJo0ZM90y7Cb0Zl9HSKXch8ComABcohvTXu6Zfiz6UnDT3Wdh3qnSFgXhurRAoR1+ZJR1ZrVq1cPEREesLENSBy5U7rz01a1uNpCal3nIertLDBafHks1TzsGc/419RMfeNPrjNR7xHajIECvea9dGPMPq4zlCPMjHuZlgMuS2XXvw5BC0sBUWlB5Ni89f4n3TLswY7m4fu5zkO9Q2jFAMCeYV271AAMdp2h3KRbhp+WWbR4iQ9zm0DK9khVor7AQr5lBctTzcOnInHkTq7zUGULb42Bau8pBqq9Zvajp1I/GXlgqnnYYxZYYEUPdJ2HiDaxIlUQtGQ6172WaR1+KWbGueiXihLeowTV+rCuTaWH1kO/lGoedrt25ZdAhIueiMqUFd3Dt7g9s2jxknTLiLI/0ZbKT5iPEjaEdW0H+uwBHAA03TJiYhqZFZveNOCrh0SVwIoeaGF/n2oeNitz7VDOelK3hTlj0GuKgfauktNt6eZhh6Rbhv2Phb0DkP6u8xBR4SByjvV1earlgB/w8QJ1R5gzBp+Gde1Ss8b8r+sMpYS23fqlW4b/TASLIHq06zxE1DOA1APmZ+kXlizKXDuSX9O0XWEuPlwV2rVLTH3/LdcZSiXTesA5mXW7LbPAD/jYgKh3AeQQm8v/T6rlgDvQcjBnAWmrwnyU8FxY1y4lAB2DBw9e7jpH2DqaR+2Tah76qG/NLAvh80iiXgqqCpiJKcmuSF1zwIWu81D5CXODo15RDFT1+WQymXedI0zp1mH/4Iv/CkRPd52FiEoE8iWouTfVMnxuOjFqgOs4VD5CKwb19fWLRMQP6/qlYlSfdJ0hLB3XHjQ41TLs99bKdAj6uc5DRKUHoBGd+VdTzcMvcJ2FykNoxeDmm29eL8DjYV2/VFT1IdcZwpBu+fJ3fb/rFUD4njNRHweRXSG4L3XNsDmpSUN6zeZ0VJzwFh+KiKr+Nszrhw5Yfuedd77kOkaQNh+J/JiF9ytAuHUqEX0OKk1iY6+mWkac7zoLuRNqMYhEInNENRXmPcKkqm2uMwQp3Tp0vM1mX+XOhUS0LQB2A+z9qeYDHkLroN1c56HSC7UYTJ8+PSMivw7zHmFRkVWDBw++13WOICBx5E7plqH3W6u/5iwBEXUHxIzNoH5JatKXT3SdhUor1GIgIlIVjV5fobMGU3rD2wiZ1pFHZTo/XWyhnBokooJYyF5qzeOplmGTkTgh4joPlUboxeD222//QERuCvs+QVLVtyORyG9c5+gJJBIm3TKiFfCfsYIhrvMQUWWyUAPItensmj90NA/fz3UeCl/oxUBEZLf+/f9VVd8pxb16CgAE+N706dMr9uCkTGLwoEz2wf+ysFMshC2fiHoMkK/5YhenJo04z3UWCpeW6kbjx48/xnjeUyJl/o1Kdeo9d901yXWMYqVbh54Fa+6BYHfXWYiod1KRe+qq+12pyUUZ11koeCWZMRARmTFjxkIVua5U9ysGVJ86/dRTf+I6RzGQSJhUy7DJ8GUeSwERhQki38l0pv7c2TLqANdZKHglmzEQEQGgl0yYMEdEGkt5325aW1Ndfdgvf/nLta6DFAqJUbumO/P38zVEIiolBdarJxfVTX3tYddZKDglmzEQEVFV7DN48LkqUm6/idYa1TMqsRSkJ434aibrL2IpIKJSg+ou8GVeqmXoT5FIlPT7CYWnpDMGn0kkErHVq1fPgkiDi/tvSVWXqcjpd91119uusxQq3Tz8YlF7m4VWu85CRH2bChbUafWFOu3lda6zUM84KQYiIhMnTozmfP/nAlzhKoOI/LG6qqrxtttuq6jfyEiMiqWz+ZsBucx1FiKizxjRN8XzxtZNWbrYdRYqnrNi8JkJEyaMtcCdItK/VPcEAKP6q7q6uqtvvfXWbKnuG4RUYv89JBuZC8jXXGchIvoiI+iA6nfqp638nessVBznxUBEZOLEifvk8/lfQOSssO+lqn8S4Oq77777+bDvFbTUT0YeqF3+I1ZkX9dZiIi2RQGo0UTdtJXXu85ChSuLYvCZzXsdTBWR44K+tqq+B9Xmu3/1q/tUFUFfP2zpScNPhcVMnnVARJXCqN5bO2j/7+rVCypqZravK6ti8JmLL77474wx40V1DIB+PbhUp6g+akQe3GmnnR7+t3/7t47AQpZQpuWAKwC9xYp6rrMQERVCRZ6pq944RpNrPnKdhbqnLIvBZ37wgx/UbNiw4SwrcooAXxWRg0Qktt1BqmsUeE6MeaiupmburbfeuqEkYUOAmXEv88KSn1nI1a6zEBEVS1VWRTV7ZtXUt5e7zkI7VtbF4IsSiURs9dq1I2Htl4y19Va1Xq2tUtWPc7nc+7W1tW9sPrSp4qFtt37pdbs9CMgZrrMQEfWUAusloufUT1n5366z0PZVVDHoK1KThuwpNrIA0MNcZyEiCooRyQH2O/U3vn6f6yy0bdypqsx0XjdsiNjIMywFRNTbWJGoiP421Tz8+66z0LaxGJSR1KRhX8nnZSGgPJiEiHolqCoEP0+1DJvsOgttHR8llImO5v2P9eHNh+ourrMQEZWCqp1eV3Xh5ZpMWtdZ6P+wGJSBdOvQs8TKTCta4zoLEVEpqcpDdYO+fCH3OigfLAaOpVuHjhfonRYScZ2FiMgFI/pk7a4fNWrzxxtdZyEWA6cyLQdcYa3+O1T560BEfZoReba2uuZUTS5Z7zpLX8dvSI6kmodfBcEtrnMQEZULI/p8rcZO4dHNbvGtBAdSzcO/z1JARPTXrOCINLKPIzFqV9dZ+jIWgxJLtQ77IQQ/d52DiKgcQeSr6Y7cf6N10G6us/RVfJRQQumWoT+20Btd56C+Y9PxtyYnQA4qXQrkRKQLql0CzalIFxRdYuHBSExFYgqNQiUmojERRFUQE5GYhfIHCSoZVX2prmrDSTx8qfRYDEok3XxAixUz1XUOKm9GJSMi60RkHUTWieg6gb9O1ftEBOsgZp3Y/Dr1zDoj/jpfoxujyHbBi+Ys0GUjfq5O+nWJRLpkkOT00kW5oLIhkTAiT8VEOmLS9U40ozvFjGpMfY2qSiwPWwMju4rY/gbaH9bvD/H6i9pdRbS/ivaH2P4qpj9g+wtkJy68pe0xoi/XmpqTdOriD11n6Uv4RVkC6dbh11iLNtc5yA0F1qvRdwCsFsVqFfOOQFeL6IcmgnVGI+tyNvNJXbRmnSaXdrnOWyqYGffkxYW7ZLFLfysd/SFV/SGym4q/twgGw5rBqro31A4WK3uwRPRNRuWVWk19Q6e+97HrLH0Fv9BClmk54DIf5jbXOSgcKroRalcrdLUI3lFgtRhvtYi+E4l4q2MeVmtyacp1zkqHxKhYNuvtDe0Y7Puyt6oMtqqDVXSwWAwWNXtDsLvrnBQOo/pcbf+PTuI+B6XBYhCiVMuI81X8e/lstrIpsF5UlovoMjW6XK0sszGzqs70W63JZze4zkeb4GdH13R98sHeORvbT3yMEJGRKjICgpEQGeA6H/WMUXmqtmrg6Zp8utN1lt6OxSAk6dahZwl0Dnc0rAybFunJO4AsV9VlCl3uiywz1d7yuuTSta7zUc+g+fCdOyKZkbC5kbDeCFGMFMgIFexvRT3X+ah7VPFwXdWgMZp8Ou86S2/GYhCCjc3Dv2HULrDQatdZ6K8ZhQV0hagsFZHlYu0yNZHltbutW64/fj/tOh+VFhKjYmmLoSafGwmYkQIZAcVIhY6yIlWu89HfMooHaqsu+DYPXgoPi0HAMtfuf4TNR5+AoJ/rLH2dAhAjbyjwPIx5zhPvuepdP3mBBYB2BIlRsY5851fEN0dY8UYrZLSIHcXZhfKgKrfXT1t5uescvRWLQYCyraNG5eD/AQA35nDAKFYDeE418jzEf66uqvZ57rtOQUHi8NrOrtRhvmC0Qo+AYLRYDOXbEm6o6LT6thWtrnP0RvwNHZD0pBEDxbd/tiL7uM7SFxjBBxA8B/GeN6LPobrrufrkqg9c56K+Bc2H75zWjYeryGiIjFbIEVZkX9e5+goVubK+beUvXOfobVgMAoCb9qxLf7TzHyDyVddZeiuj+haAJ8X4T3q26umatqX/6zoT0dakEvvvYbKx46A40cKeKNBRrjP1Vkbgq5gxtW0r5rvO0puwGPQQZsa99KIX2yHmTNdZehOj8q6IPikiT3oRPFk9eeWbrjMRFSM1acieYqPfELF/JzAnQmSo60y9iRFJi5oT6qYtX+Q6S2/BYtBDqebhv4SAi2B6SBXvK/CkaOTJSKTryarJq15znYkoDJlrh+5l83qiqJ6okBOtYIjrTJVORdZ6Ee/omhuWve06S2/AYtADqdbhP4LFTa5zVCIV/UgUTwvkyaiJPFk1delS15mIXOhoHr6fNf6JwGdFQfd2nakiKZbWV9UewwXHPcdiUKRM6wHnWF9nckVy9ymwWDwzT1Xba29Y9qKqwnUmonKTvW6/4Tm/6mwBGhT4Ol+R7D6j+kTtkPrTgjw8rC/iN7UiZK4deTT8/JPcwGj7jGoXYJ8W0XZPIvO5YJCoMGgdtFtG6s6CRYOoOQWQeteZyp2KnVHf9vrFrnNUMhaDAqUnjRgIaxcBMtB1lnKkKusUsgCetNdFd3mMZwkQBQO3nF6VWfPGSbDSIKJnQzDIdaZypUZ+UD915c9d56hULAYFQGJULJ3NPwXI11xnKSeqskot5iFi59VF9/4j9zEnChcA7Wjd/wirsQaBNAD4iutM5cSo5CFyav20lU+4zlKJWAwKkGoZ+itAv+s6RzlQkRdU9CF4Oq9+yvJXXOch6ss6mofv5xvboNY0idoTeKLrpgXOnsjomrYVb7nOUmlYDLop0zz8cl/wS9c5XDIib8PY+6Je1b1Vk19d5joPEf2tzLVD94IvF0DMt/v6TIICi+tqdjpGk4syrrNUEhaDbuho3v9YK5EnrEjUdZZSU5V1AvkPT7x7q6ct/SPfJCCqHKnm4QeL4iIFzu+rr0EasQ/Wtb1+vusclYTFYAcyiYP3ttnO5wHd03WWUjGqXRA8YhT31gw84BG9ekHWdSYiKh4SCZPOPvANgXxbVMYBspPrTKVkFNfUTXuNe850E4vBdiAxKpbJ+s9YYLTrLGHbdESxPqNi7q2V6Cyd9vI615mIKHhInFCdzq1pECvfVshpfWEm1Ah8qJxWP+21x11nqQQsBtuRbhn+cwt833WOMKnqchV7r4G5j4t0iPoWJAbunu7s9y0RfBuiR7vOEyZVvK9V0UPrkkvXus5S7lgMtiHTPKzRF5nrOkcYjEoekLkQ/UW/thVPuc5DRO6lfjLyQOmy3xPFRb11IyWj+kRt1Xnf1GTSus5SzlgMtqKjedQ+vuYXA9LfdZYgqcoaUf2ViWXuqE2ufs91HiIqP2jbrV963ZfGC+wVEBnpOk/QjNhEXdvrP3Wdo5yxGHwBEidE0tk1f+hNmxipyh9F5Bd1Q/rN5h7iRNRdqZZhfyciV6hIo4VEXOcJghH4xuCkmqmvP+06S7liMfiCVMuwGwH5sescPWVE0hC5V0R/Ud+24mXXeYiocmWuHbqX9eVSgf4DRAa4ztNTKvpenak5VKcu/tB1lnLEYrCF9KQvn468eaSST0xU0RVi7C/rYv1/zXMKiChIuOPwaPrt9Djx7fcgcqzrPD2hqo/VTV1+Bvdm+VsV+w0waJnE4EG2s3YJBCVoIDQAACAASURBVLu7zlKoTa8amnki9t/5Og4RlUJq0rCviLXfU9G/r9STZo3R5rqpK250naPcsBhslmoe+ihET3edoxBG4Ivo7xDzptRfv+xV13mIqO9JTRqyp9jo/xPoZRD0c52nEEa1Cwaj66esfMl1lnLCYiAimdbhl/oWt7vO0V2bdia0v4lEYtOqJ7/6hus8RERoObh/Cl3fV8FVENnVdZ7uUtWX6qq80Zpc2uU6S7no88Wgs+Xg/fOSXVIJ7+0aQYeo/kqrqm6qTb78jus8RERfhMSo+kw2dzmgP6yUhYoqOq2+bUWr6xzlok8XAyQSJt35wNPlvohGVTYI9JdSnfu3+uSqD1znISLaESROqE53rpmgItdYkX1c59keo7DGM8fV3LDif1xnKQd9uhikW4dfYy3aXOfYFlX9WOHfUltdd4sml6x3nYeIqFC44/Bo5q1Pvw2YFkCGuc6zLap4vW63DYfqj99Pu87iWp8tBqnm4Qer4DkrUuU6yxepyFox+q91Me92TS5Nuc5DRNRTm094jIvoJABfcZ1na1T0tvq2FVe4zuFanywGuOPwaPqNDc9C9VDXWbakgk9VdWpt1cCbNfl0p+s8RERBA6Adk4aOs9CpgB7gOs8XGU9Pq5uy4veuc7jUJ4tBumXYTyykbPbKNiI5UbmtVlM/1anvfew6DxFR2HDH4dH0qtRlIvJP5bR/jBH539rqyIF9eba2zxWDbOuQYXkbfalsHiGozopGIq187ZCI+iIkjtwp3flpq4r9vhWtcZ1HRMSo3lw3bcU/us7hSp8rBumWYU9ayDdc51DVhcYzP6q9YdmfXWchInItkzh4b9vZMVlVL7JQ4zKLEfga8Y+uvWHV8y5zuNKnikG6ZfglFrjLZQZVWWnEa6mdtmyOyxxEROVo01bLchMgp7jMocDiuppBozX5dN5lDhectrJSSiX23wPATc4CqHyoIlfWVQ08kKWAiGjr6qesfKl+2spT1TOnqMoSVzmgemgm+94PXN3fpT4zY5BuGXq/hZ5f6vsaQQcM/q1ul3XTtPnjjaW+PxFRpUIiYTKdv/u2qD/ZQgeX+v5GJeNF5KDqySvfLPW9XeoTxSDdMvw0Cywo9X1VsMATc0VN24q3Sn1vIqLeAonDa9OdqYQqfmghkVLeW0V+X9+28rRS3tO1Xl8MkDihOtO5dqkVDCnVPVVkrXjy/fopK2eW6p5ERL1dqnn4wSJ2OkSPLuV91TPn109Z/mAp7+lSr19jkMmu+XGpSoECUJE76qprRrIUEBEFq75txct101Z+3RO9QgWfluq+6vs3IXF4banu51qvnjHIJA7eG9nsCgsJ/RfUCF41ETORh3AQEYUvPWnEQGtxswDxUtxPFdfXT3vtn0pxL9d6dTEoxYJDo+gUmOtr96+/SS9dlAvzXkRE9NfSrcPOEOgvLLBfmPcxik7jRUbU3LDs7TDvUw567aOEjtbhx4RdClTwX14kdlBd24opLAVERKVXN3Xlo7VV9Qeqyk1GJbQ9Byy02s/7/xLW9ctJr5wxQCJh0p0PPAeRr4ZyA5UPFfLD+raV94ZyfSIiKli6edghorjDQo8K7y56Yr+2FU+Fd333euWMQabrge+EVQqMyP31VZERLAVEROWlrm3lktqqC76uBt83go4w7qEqN2Nm3Avj2uWi180YIHHkTpnOda9Z0T2CvK6KbhST/1791Dd+G+R1iYgoeNnWUaNy8B8A8JWgr+2JXlHbtuK2oK9bLnrdjEE6u25S8KUAf45o7FCWAiKiylA1denSukH7H2mAnyuAIK9tRX6Ktt36BXnNctKrikF60oiBCrk6qOsZga+K6+uqBx1XPe3lVUFdl4iIwqdXL8jW3fjaD9R4p6nI2qCuC8HuqU92/39BXa/c9KpHCamWYbcBclkQ1zIibxvJf7umbdUzQVyPiIjcQWLg7ulsv7sBOTuI66noxjpT82WduvjDIK5XTnrNjEFny6gDVOS7QVzLiH2wVvodwlJARNQ7aHLNR/XTVjZ4olcEsTARgn4ZdFwbRLZy02tmDNLNBzxgxZzXk2uo6EYVvbKubflvgspFRETlJXvdgSNzXV33Q/XQnlzHiGRNxBve2zY96hUzBulJow4F9Fs9uYZR/CUSjRzGUkBE1LtVTX51WV1N9Cgj+rOeLEy0IlW+n//nAKOVhV4xY5BqHvooRE8vdrwR/Vlt9YBmTT4d2q5ZRERUftKThp8KiwcA6V/MeKOwEY0eXDV16dKgs7lS8cWgo3nk8Xnxny5mrBHJipiJnCUgIuq7OltGHZCTXLtARxUzXiFz629cOSboXK5U/KOEvPg/LWacir6nxjuBpYCIqG+rnrb09fr+nxytqvOKGQ+VpnTLyMOCzuVKRReDjtbhx4jICYWOMyLPmurM6Nqpy/4SQiwiIqow2vzxxrqpy5tU5YZixkP8XvOGQkUXAx9yXaFjVOU3tXt9+fja5Or3wshERESVSVVRP23ldaJ6rlHJFDTYYmz2ugNHhhStpCq2GKRbRhwO4LTufn7TLobmR/XTVo7Xqxdkw8xGRESVq9+0FbME8nUj0u3XEKGq+Xx+Upi5SqViiwHEdnvaRoH14pkz66ct/9cwMxERUe9Q17ZySW31xiNEpPuL22HP72w5eP/wUpVGRRaD1E9GHigWTd35rKouj8b8I+umrPh92LmIiKj30OSaj+r37/dNFe3WSYpW1Msj2xJ2rrBVZDHQLn8SVHf4qqWqPlZXtfNRVZNXvVaKXERE1LvopYty9W0rrvCMXmYE/g4/rzo+kzh471JkC0vFFYPOllEHiGCHuxwald/VDalv0OSzG0qRi4iIeq/aqSvuUGPP2bT/zbZZIIZs9selyhWGiisGecn/Pyvqbe8zKvKr2qrzL9BLF+VKlYuIiHq32qlvzIUnZ6pKagcf/S4So3YtSagQVNTOh2g5uH9Gsu9YSO22PqMqN9VPW3lNKXMREVHfkWkdeZS1/qMQ2eY3f6PSUjdtZVspcwWlomYMMtr1D9srBUb0WpYCIiIKU+3UZX8Rz5ygKmu2/Sl8D4kTIqVLFZyKKQZInBAR2Cu39s8UgKf2e3VtK6aUOhcREfU99VOWvxKRqmON6Jtb++cWOjidXTOu1LmCUDHFIJ1bM9ZCB3/x7xuVvAguqp32+i9d5CIior6petrLq7Q6c6wRvLqNj3y/pIECUjHFQPy//Q9sFJ2qdlz9ja/f5yISERH1bbXJ1e/VVkePNyLPfvGfAfK1zLWjjnSRqycqohhkWoaMhsjXt/x7qpKCsWfUTn29qNOwiIiIgqDJpZ/UVkdOMqpPfPGfwc/9o4tMPVERxQCI/tV/WBXdaNQ7uX7KG0+6ykRERPQZTS5N1Q7a/wxVfeyv/gH0nMy1Q/dyFKsoZV8MUon99xCR+Gd/bUSyomjikclERFRO9OoF2bqq+nGquvCzv2dFotaXS13mKlTZFwPtil5sRaIim09INLigftrKv5muISIick2TizJ1VdVnqepLn/89yHcwM77djfnKSdkXAwATPv8Lo5fWTn1ttsM4RERE26XJJeu1yjtVBW+IiFjRvTOLXj7Nda7uKuti0NE88nhAhomIGMU1dVNX3uU6ExER0Y7UJZeujUT1m59tggTY77rO1F1lXQx8zX9XRERFb6yb9tpNrvMQERF1V/XklW+KMaeoyjo1clY6MWqA60zdUbbFAIlDdlHIOSq4q75tRbPrPERERIWqn7L8FeN5ZwgkK51dF7vO0x1lWwzSnR0XQrCg7vBDK2o1JxER0ZZqb1j2Z1Ez1qpeBKCiDi8sK+mWA/4Ft5xe5ToHERFREFKThp3b0TryONc5KhISh9ciMaredQ4iIqIgpSYN2dN1BiIiIiIiIiIiIiIiIiIiIiIiIiIiIiIiIiIiIiIiIiIiIiIiIiIiIiIiIiIiIiIiIiIiIiIiIiIiIiIiIiIiIiIiIiIiIiIiIiIiogJcddVVVa4zEG1PxHUAIqLerKmpaTdVPTaXyx1njDnurbfe2l1Evuw6F9G2sBgQEQUoHo/vk8lkjotEIseJyHG+749UVTXGiIiIMWa124RE28diQERUJADa1NQ0UkSOE5HjAByXzWb38TxPAIiIiKo6zUhUKBYDIqIiNTU1tQM423UOoiAZ1wGIiCpYjesAREFjMSAiIqLPsRgQERHR51gMiIiI6HMsBkRERPQ5FgMiIiL6HIsBERERfY7FgIiIiD7HYkBERESfYzEgIiKiz7EYEBER0edYDIiIiOhzLAZERET0ORYDIiIi+hyLAREREX0u4joAERERheOYY47pt8cee9R/8MEHqYULF27szhgWA+pz4vG4l0qlRsVisVEiMtJaO1JEBqlqDECVqsZUFSKycfP/1ltrX1fVZblcbml9ff1Ls2bN6nL6L0FUgS688MKd0un0CGvtvsaYnQD0E5F+qhrL5/MbPM/boKobAHwaiUReO+igg95IJpPWde5KMGbMmD2stWeIyGgA+wP4sjFmXwAx3/dlt912k7PPPvva+fPnT9nRtbQEeUVEJB6Pfymbzd5T6DhV/bS9vf3CMDJtKZFImMWLF+9U6Lj6+np73333bQgjU7HGjBkz0Pf9nxQ6zlr70cMPP/xPYWTa0vjx46szmUxtIWNmzpy5bvM366Js/gPpNGvt2SJyhojsWuy1AKRV9SlV/b2IzG1vb19d7LV6qqmp6fB8Pj+8mLHGmE/mzZv3WNCZghaPx2Misk+Rwz+dNWvWh939cFNT0+EAqgq4/s0AjigkkKq+53ne1wsZsyOzZ89+O8jrBSGRSJglS5YcAeBUETleREYBGFTgZTIi8qqqvgzgv/r16/douf15uzXxeHyI7/u7d/fzvu/n2tvbFxdxn507Ojomep43DsBo2cHyAADdKgalnDGoEZEzCx1kre32F3VPPPvsswdGo9GXCh23cePG10VkaAiRimat7S8ilxc6zhjzpoiEXgzWr18/EcDNhYxpamoaIiJvFXqvcePGfSWfz/8olUp9C0Cs0PFbo6p1InImgDNF5OcNDQ0LfN+fXltb+8isWbP8IO7RXdbaAcaY+4odHo/H95k1a9a7gYYKWFdX17cA/KaYscaYi0VkRnc/b62dLcWXkG4BMCifz78V4PUgZbRe7IwzzjgxGo1OePHFF88Qkf49vFytbPoJeLSIXJJKpboaGxufVNVZO++8830zZszo7Hni4HV0dLQYYyZ29/Oq+rGIdLtInH/++XumUql/zGazV2yeeSkq57aUzW8m6jsArC90jDGmvpDPjxkz5oTGxsbHcrncEgAXBVUKthZNRM70PK+9q6vr1cbGxnNCus9WHXbYYQtUtdgZC5PNZi8KNFA4zitmkKpu7Nev338EHYb+1jHHHNOvsbHxR2efffbKSCTyBIALpeel4G8AiAE41Vp757p1695qaGhoicfjOwd9n57yPG9dGNcFoGefffYVqVTqDVVtEZGCZ7m7g8WASs5aW/AXzeZnkTs0ZsyYPRobG+/zff+pzVOYJQNgOIBZDQ0Nz44dO3Z0Ke6ZTCYtgOk9uMT4wMKE4IILLugP4JvFjAXw4G9/+9t00Jno/8Tj8VhjY+PVu+666xsAblLVUs6e7ikiU7PZ7NtnnXXWZQBK9mi8GwIvBo2NjYObmpr+U1V/sXnWMjQsBlRy0Wi04C8aVd3hjEFjY+N3fN9fBuCC4pIFZnQ+n/+fs84666cTJ06Mhn2zTCZzt4jkixw+orGx8agg8wQpk8mMFZGi/huq6l0Bx6EtNDY2npHNZpcDuFlVv+Qwys7GmNuampqePu2004pabxM0VQ20GGz+QeNFACcHed1tYTEgFwp+lGCt3WYxGD9+fHVjY+ODAO6WHiwqDFjEGPOT999//09jx47dO8wbPf744++JyLxix1trLw4uTbAAFPsYYWl7e/tfgs5DIhdddFFdY2Pj7QAeEZEhrvN8BsBxsVjshTFjxox1naWYWdFtOeOMM070ff+/AewW1DV3hMWASk5VCy4GIrLVYhCPxwesW7fuaQDf6mGsUAA43Pf9Z5uamg4P8z7GmDuKHauq37rqqqsKWYlfEvF4/EsicmIxYwFwtiAEZ5111iEbNmxYAuBS11m2oTafz/9HY2Njs8sQxphPg7hOY2PjyZ7nPdrdR6lBYTGgkrPWdhQx5m++MBobG0d1dXU9KyJHBhIsJAAGWmv/0NjYGNqahzlz5vyXiLxZ5PD+q1evbgwyTxByudw5ALxihnqed2/ggfq4xsbGUz3P+yOAL7vOsj2qqgCmNTY2/qurDNbaHr8t0djYuB+A36lqdRCZCsFiQCXXr1+/gr9oPM/7qxmDeDy+D4D/BDA4uGShqhWROWPGjDkhjIurKlS16FkDAGW3CLEHjxEenjNnzgdB5+nLGhoa/gHAwwH+5JpR1UWq+ltjzGRr7XQAC0TkFREJZJ8CAD88++yzJwVxrUIZY3pUDMaPH19trX1IHD0a5c6HVHKdnZ0Ff9Hk8/nPi0FTU9Nu2Wz29yKyV6DBQgagxlo7v6mp6eS5c+c+G/T1jTH3+L5/vRS3WO/UeDw+YNasWWuDzlWMk08+eRCAY4sZy8cIwWpoaLhERHry5ouIiAB4QVV/E4lE5j/00ENvbmvDskQiYV566aXjfN//lqqOA7BHsfdU1RsaGhrWzps37+7ikxcum812RKPFrztev379NFX9aoCRCsIZAyq5zZsAFbSK/rMZg6uuuqpq86KnEcXeHwBU9S1VnS8iU40xF3ied4ox5hwRmSAiUwE8rKprir3Hdu7dz/f99ng8PiDoa8+ZM+cDVZ1dZC6vo6OjbPY0qK2tjUsRfz6p6pqqqqqy382xUjQ1NY1T1aJLgaqmRORGVT1w/vz5h8+bN+/m2bNnr9reLqbJZNLOmTPn6Xnz5l0Ri8UGicjpIlLw5nOfAfCL008//eBixxejtra26BmD0047bTiA7wWZp1CcMSAnVLUTQCGbFvUTEfnf//3fyQCKfb1umYj8JhqN3jt79ux3dvRhADpmzJiv5vP5Rs/zJhSxnetWqeqArq6u3yUSiZOSyWSxrxluVS6XuyMSiRS1ENMYM15EbgoyTw8U9e8A4Nc92X1SVc81xnT7mW4+n3+k0HfKVfVj3/evLjzd1kUikWC3vdusoaHheAD3F7nOQ1T1/nQ6/ePNb80UZfOv5WPxePy/urq6vgfgpyJS0IZGqlodi8UenDhx4ujp06dnis1SiHw+X3QxqKqquhFAYN+bAcAYYwv5dWQxIFeyso03DbYGQP2ZZ555HIAfFnKTzV8U93qed+vs2bOfK2Ts5p9qFonIookTJ17/7rvvnhuJRJJBLL4CcPwLL7xwvYi09vRaW3r00UefbGxsXAlgWBHDDzz99NOPWLBgwfNBZirU2LFj983lckerFr5fTTQaLfg8li0V+opjQ0NDMSUk8/DDD99fxLiSOf/88/fMZDIPFrlj6Cu+71/xyCOP/DGoPJsLwi3nn3/+7zKZzN0AzihkPIBR77333g0i8oOgMm1PbW1tVzpd+N5aY8eOPTqfzzcUcUsrIn9S1acArMrn82/W1dW9FYvFPr733ns3qiri8Xh9dXV1t0okiwE5AaCgn5QBDPQ8b4YUML2sqs9HIpGrZs+e/eeCA37B9OnTcyJy31VXXfUfb7/99o9F5DoR6dErfsaYHzc0NMycN2/eiz3NtyUAd4hIUSuyY7HYxSLitBh0dXWda4wpuBWo6h8eeuih18LI1JckEgnz4osv3iciAwsdC+DhXXbZ5bywdpx84IEH3k8kEo2LFy+eUehGZsaYK8eMGTN9zpw5y8LI9gVFzVr5vj+hkM+r6vO+799VU1Mzd1vrg+67b9NRKrNmzUp197pcY0BOqGpBXziqeoJ0fzOVDSIy8dBDDz0qiFKwpVtvvTU7b968yblc7lhVfasn19o8tXdHIpEI9OvQGDNDNs3IFOO8zacZOuN5XlGPEVS1pAvMeqslS5Y0i8hJRQy9rbq6uinsbaiTyWT+0EMPvQjA7QUOjfi+//NQQn1BoX++iYjE4/EaAOd28+PLjTHntLe3j3744YdvD3rRMIsBOQEglDPWVXV1Lpc7dt68eb8K8xz3BQsWPB+LxQ5X1Zd7eKnRS5YsCXSzmLlz534sIrOKGQtgt1wud3aQeQoRj8cPAFDwZlA8MCkY8Xh8CICCj2wHcO28efOuKNXposlk0s6fP/9yVb2zwKGnhPXK8JYKLQYAIl1dXVfLjg9Fyqvqj6uqqg6aO3fuQ8Un3D4WA3Il8D9AVPXFdDp99IIFC3r6zbpbZs2a9UksFjtFVd/oyXUAXDd+/PhANzGJRCKF/jS1ZR5nexp0dXUVu+iQByYFIJvN3gqgpsBhv54/f/6UUALtwJ577vl9AAU9PrLWXhNWns90dXUV+kPJzgCmbe8DqvqBqn6zvb39X8IuYCwG5ASAoH9jPxGLxY7vyQroYsyaNWttLBb7pqoWfV8Ag9avX/8PQeaaPXv2QhF5tcg8p48ZM6bod8d7qKhiEIlE+Bihh84666yzReTMQsYAeKF///6XhxRph6ZPn56JRqN/X8hP6ADOGDNmzEFh5pLgf/BZ7nne4e3t7U8FfN2tYjEgJ1Q1sGl+AKvq6+vPKWRxTZBmzZr1ZiQSOUV6tmNbS9DP9nuwE2LE9/1vB5mlO8aMGTMSQMHvm6vq0qDXkvRFnuclC/m8qn4cjUbHzpgxo8fb//bE5l/77f60/UW+74d61sOAAQOC/PNtraqe3p1XrIPCYkBOBFUMAKTz+XzT/fffH/j554V46KGHXlXV64odD2BQV1fXmCAzichvVbXgcyk2K/njBGttsVsgc7aghxoaGs4EcFghYwC0zp49++2wMhWivr7+RgCFPEo6L8wj0deuXRvI3hKqmopEIme2t7e/FcT1uovFgCqaqn6nVGsKdiQWi/1SVYt+9RBAQa8q7Uh7e/t6EXmwyOFfaWhoKOgbRQCKeYyQU9XfBp6kj1HVghYcAnjtsMMO69GeEUG67777NgC4r4Ahu7/77runhxYoOFfNmTPnhVLflMWAXAmiUT80b968olbfh2HzgqDLART17wbg5MbGxv2CzKSqRS9CVNWLA4yyXY2NjYcCGF7oOB6Y1HNNTU1HFrqbqOd5iaB37ewpz/NuK/DzQc/QBUpV/2fu3LkzXNybxYAqVd4Y4+TktO1pb2//SxGvUInIpuNiVfX8IPPMnTv3WQBLihkL4IIwp1u3ZK0t9m0EHpjUQ77vf6fAIa/MmTOn2Jmo0LS3ty8WkW4fTqaqoR2D3r9//x794LN5MeX3tnemRJhYDKgiAbhz7ty5K13n2BpVnVLsrIHv+wVt9dodxpiCfpLawu7vv/9+QavUe6C7G7t8jgcm9dz48eOrCy2j1trfuPqGtSOq+ofufhbAwLPOOuuQMPMUC8CszUXHCRYDqjiq2lFdXV3QCupSam9vf0tVnyhmrDHmaxdccEH/IPN89NFH928+5a5gpdjToKmp6UhV3b/QcdbaGaXaUKe3Wr9+faMUeChRPp+fF1KcIBR6CuPXwgjx4YcfHtCT8cYYp+s3WAzIiWJ/ot7skaC3AA2aMaaoKW4AXiqVCnSKc+HChRtFpJCFWVs68/zzz989yDxfBKCoxwixWIxvI/RcQbtcquqKxx57bEVYYXrK9/2CioHneaEcx5zP5wt9PLOldw455JDHAwtTBBYDqkRlv/XtzjvvPEdEin2F8utBZhERMcZML3JoNJ1OXxhomC0AUBGJFzpOVf/IA5N6JpFIGACFltD5oYQJSE1NzTIR6faiSGvtV0KMUxRVnRnmdu7dwWJAFQVAZywWe8R1jh2ZMWNGp6o+UOTwIwINIyKbX3kq6Njpz6hqaI8Txo0b93UAgwsdp6pcdNhDL7/88uEiUtBskLW2qIWspTJr1qwuVc119/PGmLB3QCyY7/uLXGdgMaCKYoz5T1c7HBaq2HUGqnpoPB73gs4jIkW9ugjgsHHjxoXyk1U+ny94UyMemBSMXC73zULHRCKR1WFkCZK1ttvnjgDYpbGxseBiGqaqqirn5YvFgCpNt19Hcs0Y85dixgGosdaOCDrPgAEDHhSRT4sZm8/nLw42zedT2ecUOo4HJgXDGFPwzJSqlnUx2PyWhRY4LJR1BkXKHnTQQc7XcLAYUEVR1VWuM3TX7Nmz3yn2cKXOzs4vB51n+vTpGREpdpfACxOJRCTIPM8999wJqjqg0HE8MCkYAL5a4OfheV7J9usvRiaTqS10jKruHUaWIr1eDhtHBfqFTlQCPTri2IG/iEjBO6xFo9F9QsgiuVxuejQavbLQcQD2WLRo0ekS4OIzY0wxZyMs44FJPRePx3fNZrP7Fjquq6vrzcbGxjAiBSKbzRb8CC6fzxf0umbIXncdQITFgCpPRRUDAM9KEcXA9/1QisGCBQtebmhoWCgixxQ61hgzXgIqBolEIvLiiy+OLSIDFx0GoKurq+A1I6qqAAaFkcelSCSyk+sMn7HWlkUx4KMEqhiq6s+dO/dj1zkKYYwp6pU6VQ1tQVSxxzGr6tnxeHzXIDIsXrz4JClwRbzwwKTAqGrBswW9lbW2bGYMPM9713UGERYDqiA93BTJia6urk+KHLpLoEG2vPAuu8wSkYJzAYjlcrkLgsgAoJi3EXhgUkCstWW1Et+xspkxAFDU4uCgsRgQhSgajRa1yRGAmqCzfGbzHgtFndoWxBbJ8Xg8pqpNhY5TVS46DAiLwV/p5zrAFja6DiDCYkAUKs/ziioGqlrw6upCRCKRonZCBHDEuHHjDuzJvTs6Ok4FUNCMiKquiUajC3pyX/o/xpi9XGcoI2XzfRBAWezRUjb/QYh6o/fff7/YRwmhFoOHHnpouao+VczYnu5p4HlewY8ReGBSsADUu85Af6tcTq1kBUfZnAAAIABJREFUMSAK0cKFCzeW69oIAEUtQhSRC4vdmTEej9eISEOh43hgUrBUNbRHVVT5WAyIQlTkTmwiIpnAw3xBVVXVbAAfFjoOwMCurq6iToDM5XJnFPrTKg9MCkWoM1JU2VgMiEK0YcOG/sWMAxB6Mdh84ExR575ba4tahFjM2wgiwtmCgAFgMaBtYjEgClexrx2GXgxENh3HXMyjDlVtvOCCCwoqPfF4vF5EzizwPht32mmnWQWFox0yxnT7oKHPqOp69ELl8ly/nHDnwx4qcpo4VJFIRHO5bp88SiFCgavvP6OqJSkGc+fOfaOhoeFxESn0pL2qTCZznojc1t0BuVzubBT+GubveGBS8AAUXAwAvDN//vyiZsCosnDGoIcAVLnO8EX5fJ4NuEwAKPZRQsHP/otljClqESIK3NPAWvutQu/heR63QA5HMTMG2TCCUPlhMeg5PqujbfJ9v9gZg7eDzrIthxxySDuAtYWOA3DUuHHjunU8dDwe31lETivwFjwwKTzRIsbw+0UfwV/ozaqrq4v9Kbsu0CABiEQiZfd4o6/yPG9YMeOMMSUrBslkMl/s4UTd3dMgl8s1iUhBs2s8MClUxWy9W+jZFlShWAw2M8YUO01WVew73WHprY8SAHgAKq30jC5mEICSFQMREc/zfiUitoihF3Tn1wRAoScp8sCkcH1U6ABr7ZfCCELlh8VgMwAdxY597733yu1xQsx1gDCoqjY1NZXNSWjdYa0tqhgYY94MOsv2zJ49+21VfazQcQAGjxs37uvb+8xFF11UZ609pZDr8sCkcAEouBioanU8Hg/lOHAqLywGm1VVVXUWO3bQoEF7Bpmlp4wxvbbZx2KxilkVPXbs2H1VtZhfi/fnzJmzJvBAO+D7/u3FjMvn89tdVLhx48bTVLWgxW48MClcxpiC15SIiOTz+cOCzkLlh8Vgs0gkUvSMQWdn59Ags/RUPp8vq6ISpK7/396dh0dV3f8Df3/OnSUbIosoWqoiAuIGYv22tS602rqRgDS2uACxra1t7fq1BLQd04qAtn5brbVaK+BGSwQyCNrFSl3QuiC4FARXxLqWRcmEzGTu+fz+MPSHlCUzmZlzZ+b9eh6eR0juvW8hybzn3HPPSaX6u87QVel0+rhsjhORJ3KdpSsqKyvvBfBGpsepan0sFtvlzxJVHZvJ+bhhUkE8m81B2Y6AUXFhMeg0cODArcjuHiuMMYEqBp7nlWwxUNUuzYIPAhH5ZDbHqaqTYtDc3Oxba2/J9DgR2e/ZZ589YWcfu+iii8KqelYm5+OGSfnn+/7KLA/NaIEqKk4sBp2ampqsiGQ1vKaqgSoG1tohrjPki4gc5jpDV9TX13uqmvFz+wBgjHFSDACgsrLyFhHJ+EXZWrvTyYXvvvvuKAAZzQvxPC+rZZqp6zzPy6oYqOpwzjMofSwG21HVjIdRO2X1SFoeneE6QB59znWArmhvb/88gIz3vFfV9h49eizLQ6QuaW5u/peqLs70OFU9e2dPJ/i+n+lthIdbWlrWZnr9YhKEJ2vi8fh6ZHHbCABSqdQFOY5DAcNi8FFZfaOIyKcuuuiibBYMybm6urrhyOIFqVio6ojTTjst8CMiIvKVLA+9PwBLAGczCfFjY8eO/cj9Z1UVY0xdhucpqkmHIpLN933Gqw7mQzYFsPO4i2OxGJfTL2EsBtsRkayKgar2eOONNz6T6zzZyPR+bjEKhULZ7NBXMOPHj+8LoDabY40x8RzHydiIESP+IiKvZXrcjqMDY8aMOU5VuzxZtNg2TKqvr49ksfcDEJDVUo0x92R56AFPP/10oL8HqXtYDLYjIv/M9thwOOx8+P6SSy6JAvia6xz5ZoyZGJQRmp3ZsmVLA7JbctZWVVVl+8M6Zzrn29yc6XHGmI+UIRHJqKSq6h8CMFqSiazW1FDVyiDcTth7770fUNWs/r5F5MqJEycGYuSDco/FYDvJZPLpbhzuvBi8/vrr3wSQ9cQgEXk4h3Hy6eB33nnnG65D7Mz48eP39TxvapaH/2Xu3Lnv5DRQliorK28FkNEWnao6rL6+ftB2v8+oGGS7mZMroVAoqxVGRUTOPffcfrnOk6k5c+a0G2PmZnn4gZs3b/5hTgNRYLAYbGfQoEHPIcMfhtuo6rAzzzxzp49sFcLxxx/fQ1WzfUHaZkNOwhSAtfbHxx9/fA/XOXbU1tZ2bbZbLRtjbsh1nmzNnTv3HRHJ+LZGMpmsBYD6+voDVHV4V48TkeUtLS3LM72eS91Z+ySZTA7a82fln+/7v872WFX98bhx447KZR4KBhaD7Vx//fVJEXk+2+M9z4vlMk8m+vbt24Qy2uRERPbp27fvFa5zbK+uru4UVT03y8NfPfroo+/NaaBuEpGMJyFuu32wdevW0Zkcp6pFNVoAfLj2STaPdgKAtTYQxWDx4sXPqOojWR4eTafTc+vr67OZZ0EBxmKwA2vt/d04/HN1dXW7XTc+H84666xzVfX73T2P7/vO73tmwlr7/bq6ujGucwAfzu+w1v4m2+ONMTc0NTVltcBWvixcuPABAC9lcoyqfub444/vISJdnnwpIlui0Wi2Q9rONDU12WwfcVbVT+U6T7ZCodDPsz1WVYclk8nbd7fyJRUf/mPuQESyeoRnOzMKudvi6aeffqyIlOX2tCIiqjpnzJgxTteRiMVioXXr1t0pIlktdCUib/br1+/GXOfqLhFREcn0nXy4T58+Y0Xks109QFXvaG5ubs3wOoGgqq9ledxpOY6StYULF8a7MWoAAONWrlx5Xc4CkXMsBjsYMWLEoyKyOdvjVfWEVCr1i1xm2pVx48YdHg6HWzLdoKbE7KWq99TV1Q1wcfFYLGZWrlw5B8C4bM+hqlfcfPPNbTmMlTNVVVWzAWS6JflVAKJd/eSOjo7AlaKuMsZke+vxwNra2sBsSOR53g9VNevt2lX1W7W1tb/hyEFp4D/iDpqamtKq2tKdc6jqd8eMGZPtAjddcuaZZ9am0+nHkMPFjDzPK8qvB1UdrKqPjh07tqDLJauqrFy58nfdmFcAAKuj0WhgF/WZO3fuv0VkfoaHZfI1uey+++57LsPzB4bv+49me6yIdHeycM60tLQ80Y0nFLa5eOXKlXdfcMEF1TkJRc4U5QtBvmUz6WpHqvqbfJSDWCxmRo8ePdUY06KquZ6VX7BbIHnwMWvtw7W1tScW4mITJ06sGDNmzO9V9cJsz6GqKiLfDPqGQfmcGKiq3f5ecykSiWS9fLW1dtzpp59+bC7zdIeIfEdEurXdt6qO/eCDD5aPHTv2mFzlosJjMdiJeDz+uIis6M45VDVirb2lrq5uwZgxY/rkIteYMWPOWrly5UoRmSYiOZ8oaK0t5mIAVe0DYGltbe119fX1Nfm6zrhx4w7fvHnzE6ra0J3zqOqv4vH433MUK28WLVr0EIDVeTj1vw866KCiWelwZxYsWLBORLIaNRARiUQiC8aOHRuIrcRbWlo2iMik7txSAABVHWKtfeyss876qevRg1gsZs4444xRdXV1t9bW1nK1xi4qWDEothnvqvrLHJ1nrKo+V1dX9/36+vr9Mj2+vr4+UldXd0ZdXd0ya+09qnpkFw+9PtNrGWNKYf1zA+CSZDL5/JgxY8bl8p7nmDFj+tTW1l7X0dGxIoN/h115oU+fPlNyEqwwcj5qICK/v/766zOdvxBEWe8GqaoDfN//y9ixY4/IZaBstbS0/EVVf9Xd86hqxBjz4w8++ODFMWPGXFToVRLHjRt3VG1t7cwVK1asC4VCD6hqg4h8vpAZilnBXgiKrRiMGDHijpUrV/5vDl4A0Lle/LWpVOqa2traB4wxf1TV1QDe/PjHP/7Wth+OsVjMPPvss33b29v3jUajx6nqmalU6lRVzfTd75O9evX60aZNmy7J8LiiHjHYwYHW2rtXrFjxal1d3fU1NTW/v/POOz/I5kTjxo07KpVKXayq5wPo9kiEiGwxxtTPmTOnvbvnKpSamprbEonE9Cz3BtgZ63le0U463F5NTc281tbW67rxd3OEtXZ5bW3tL1Kp1Jw//elPa/Z0wPjx4/u2t7cfZa1NxOPxx7O87k6NHDny0hUrVgwD0O0XUlXtr6o3bd68+ara2tqbw+HwnfPnz8966fldXEO++MUvDkulUicZY0601p7U0dGxszdhx+fyuqWsYC/W9fX1ByeTyVcyPU5V37vnnnucLB86evTo00Uk74vOiMgGVU2LSF9V7daLs6q2RyKREfPnz3+hrq7ug0zmIYjI7fF4fEJ3rt9VtbW1qwEMzfCwtIjMy2ayn6q2G2P+AWCpqv69urp61eDBgzfuuHZAfX19xFp7aEdHxzAAJwI4DUDOFqMREV9Vz1q0aNGfcnXOQqmtrZ0NYGIuziUii+LxeKY7LwZWbW3t7QDOz8W5RGQVgDWq+jaATSJSba2tAdBDRHqJyOGqun/np9+4aNGib+biuts7/vjje/Tt2/ehTFav7CoReVlV7wXwVEdHx4qampqXmpubd7mKZCwWC61ataoCQGUymfyYiBwiIgPT6fQhxphDAByNLi7uFo1G+zU3N7+Xm/+TXRs9evTVInJpFoeeHoSfDQUbMbDWFt0w9T333HNfbW3tfHTjUbSu6Lw3jm7e2oOqqrX2q/Pnz3+h8/ebAHS5GKhq4B973GuvvS56//33RwDI6AkEEalQ1ZMBnAwAiUQCK1assKNHj95gjNmkqlEAe6VSqb26W872kOOSeDzu/Bs/G8aYm6y1uSoGgVn+ORc8z7vJ9/2cFANVHQZg2Ha/x/ZTirb/OSEiWW3ktCfLli3bMnbs2DN8318G4OBcnltVDwFwCQCEw2Ekk0mMHj06ISL/BgARiXR+P1YAqFixYoXZ4XioKozJ/C5hOp3+NADnO5gGXcHmGGRbDEw2//o5FI1GLwLwL5cZusoY86MlS5bcue33ncWgy3I4TJw3t99+e0JEvigiuVgQx4jIPqo6GMCBAHrlqxR0PoHwnZaWlqIdPm9paXkMwLPdPY+IrFm4cOFfcxApMBYuXPiIiPyx0NdV1bwUAwBYuHDhW21tbZ8BkPUy8V0lItX48HvwwM5br73x4fbUOf35n06neTuhCwr2otve3p7tiIHTjXKam5s3ptPpC5Dl5kqFIiL/F4/HP7K0qTFmY4bnCMQ+8XsSj8dXpdPpM7LdMrbQRMQ3xnwlHo9nPCE0aHLx6KKqXi8i3RseC6BEIvEDEdlS4MtmtWFXV91///1v1tTUnAgg68cyg8QYw2LQBYV8N97lldC2p6qRiy66yOkL1r333rvUWtvtx3jyRUSa4vH4D3b880xHDAAEfsRgmyVLljwsIoEvByKyWUTGxOPxrGeuB0lFRcWdyHwlxO29H41G5+QqT5Dcf//9bwL4SYEvm7cRg23uuuuuTdFo9FQAd+T7WvmmqiMvueSSrF6LyknBikFFRUXW9683bdrUK5dZsrF48eK7ROSSIJUDEUmp6gXxePyKnX08i1sJRTFisM2iRYseMsZ8vruLsuSLiCyPRCLHtLS0dHf/jcBobm5+H0DWcyRE5NZi3RehKyKRyPWq+kyhrpevOQY7am5u3rpo0aILAEzM0W08V6Kvv/76SNchgq6QIwZZvxu11uZ1uKyrFi1adIPnefUikvU+7Lmiqq94nvfZe+65Z5ct3hiTUTEwxvTufrLCisfjj0YikWNE5GHXWbbTISIzP/7xjx/f3Nz8quswuSYiD2Z5nA+gpDfbaW5u9sPhcJ2IFGqZ54L+bFy0aNFtIjISwGOFvG4u+b7P2wl7UMjJhyWxfnZLS8v8VCp1IoAXHEWw1tpf9u/f/8gFCxbs9r6ftTbTEYOcrNBYaM3NzW8PHz78syLyU3RvmLvbRGSp53lHx+PxxhJZvOe/iEi2z6EvjMfjr+UySxAtWLBgXSQSKcjsd2ttTaE3LmppaVkbj8eP73wKoygmZm+jqolQKBSo7c2DqJBfUFlPIvR9P1ALwdx3331P9erVa4SI/FxEUoW6rog8LCKfXrx48fe7shufqmY0+RBAVX19fdHMM9heU1NTOh6Px0Kh0DARWVTo66vqIyJyZjwe/+zChQvzsXxwkGS1k6XneQXZdTQImpubW+Px+FhjzJXI48RlEZGVK1fula/z7+a6umTJkjt79uw5xFp7BYB/FzpDBjpE5B4A4/v379+vpaWlbL4Os1WwtQVEpGe2t+dbW1udD93vqHPVukvr6upuAHAFgHMBhPNxLRG51xgzfeHChRntme553qZM/8593+8D4I2MDgqQBQsWvAKgrra29kQR+R6A2nw9gth5S2mRMebXmf7bFDPf9z+f6VYdIvLoggUL/pGnSIHU+eTFj88+++xZvu/HAJyXj69Fz/N6Ash6q/juuP322xMAmiZOnDhz06ZNF4jI9zrXYXBKVdtF5FFjzB/D4fDdzc3Nmb5JKmsFKwbpdLpftksS9OvXL3DFYJvOodFJ48ePn5xIJBpE5EuqehS6ORqjqs8YY+aHQqHmbQsWZSoSiTyWTCYvyuQY3/eLeWLRf3Ru/PPQ2WeffaDv+19T1dEAjsrBqTcCeEhEFkQikYWlPJFuZ8aOHdvf9/2xmR5njLk6H3mKQWdZnThu3LjpHR0djSJyuqpmvZqrqqox5hkRWWyMWTJ//vzX87CnWkY63yj9TlVvGTNmzHGqeraqjhWRQwtxfRHZrKrLADwSCoUe9jzvyebm5oKN5u6opqbm6q1bt96S6XH9+vULxJuygn011dXV/VZVv57pcSKSGj58eOWOS9cGWX19fc9UKnW8tfYEETkBwEEi0ntXCwiJyGYAz6nqMyLyjIgsbWlpebmwqQsr2yWRFy1alPWozCmnnLJ/VVXVaSJyTOeiRkMAfAz/XeLSItJqrX0PwEvGmBdF5AXP85bdfffdz5XiM/hdVVdXd42q/m+Gh62Ox+OHl/Pf2/ZUVUaPHn1UKBQ6RVVPVNU+IlKtqjWdC/1AVX0RSVtrNxpj/gXgTXy4TPLyDRs2rFi2bFmh10vISl1d3TAAnwZwbOevI1U1ks25OievrgfwauevV3zffzUajT5/xBFHPF9MrxFBV8hisEBVM36nISJr4/H4kHxkKrT6+vpK3/f7qGoPEWnzPG8LgFaXzdYVF8VgVzrXYg9HIpFw7969k6U6abC7xo4d299a+3KmK2SKSEM8Hp+dp1hURGKxmFm1alWf1tbW/SoqKvaz1vYE4KfTaT8UCqWNMR0AUiKSVNUUgJSqplR16/Dhw99qampKO/5fKAsFu5WQ7dCZtbZk3jl3bhQSiKEi+v86f9ikAQT2llUQ+L4/FZk/dvzq8OHD74jHuTw9AZ3v6t/r/JXRI538Giqcgj2V0LlxRsaMMRnvyEhEuVVfX/9xEclovkqnK/kuj6i4FKQYnHfeeXuJyM72x94j3/fzvoEHEe1eMplsyvTesIi8PGLEiNvylYmI8qMgxWDjxo2Dsz02HA6XzWNgREFUV1f3BQCTsjiUowVERaggxSASiRyZ5aEbFyxYkO0qa0TUTfX19T1VNePHrgC8FIlEbs95ICLKu0LNMTghm4NE5BE+4kTkTjKZ/BU+fKQzUz9rbm72c52HiPKvIMXAWntSNseJyF9znYWIuqaurm4MgIlZHPpsNBq9M9d5iKgw8v644rhx4w7t6OgYmOlxIuJXVlY25yMTEe1eXV3dcABZ3QpIp9PfW7RoEUcLiIpU3kcM0ul0Nu84AGDp3Llz38lpGCLao/r6+gNUdbGq1mRx+IJ77713ac5DEVHB5LUYxGKxEIAJ2RyrqnNzHIeI9qC+vr6mvb19CYADsjg8GY1GM10umYgCJq/F4JlnnvmaqmazResHPXr0uDvngYholy644ILqVCq1UESOzvIU1zY3N7+a01BEVHB5Kwb19fU9rbWxbI5V1ZvuvPPOD3KdiYh2rr6+vvf7779/v6qekuUpXo9Go1flNBQROZG3yYfJZPL3APbN9DgRSXme9395iEREO1FfX39AKpX6C4Bh2RyvqhoKhRrKbQtqolKV82IQi8XMypUrf6qq47I8xW0LFy58K6ehiGin6urqhiWTyfsAfDzbc4jIrxcuXPhADmMRkUM5LQZjx47tt2LFijsAnJrN8SKy1fO8K3OZiYh27swzzzzPWnuTiFRnew5VfbF///6NucxFRG7lrBiMHTv2s9baOwD078Zppi9YsGBdrjIR0X+rr6+v3Lp16y+NMdnslvgfIuIbYybefPPNbbnKRkTudbsYnH766cdGIpGf+L4/ujvnUdVXevXqdU138xDRrtXV1Z2RTCZ/bYw5uLvnUtUfxePxx3KRi4iCI6tiUF9f76VSqROstT8SkdNVu7+dgYh8Z86cOe3dPhER/Zf6+vqDU6nU1ar6xVycT0Rujcfj1+biXEQULF0qBhdddFH4nXfeOQDAKGvtaclk8lQAvUQkVzluXLRo0ZJcnYyIPjRmzJhDVHVqMpmcgBzdOhSRhyORyMW5OBcRBc8uf1CMGTPmh9baBhHZ76233uotnS0gh2Vgm2d79er1g1yflKhcxWIxs2LFis8DuNBaOxa5nWT8alVV1dlz585N5fCcRBQgu/uBEQFwuKrmowwAAFQ10dHRcQ5vIRDlxplnnnnCihUr7kJ2WyXvloi87Hne5+bOnfvvXJ+biIJjl8XAWvtSPi8sIm+FQqH6e+65Z00+r0NUTsLh8DvW2pyXAgCrE4nEKffff/+beTg3EQXI7pZEzlsxUNVHIpHIMQsWLFiWr2sQlaOWlpa1yPH3roisjEajJ7EUEJWHXRaDHj16vJyH6yVF5PJjjjlmVHNz89t5OD9R2bPWLs7VuUTkzwBGNTc3v5ercxJRsO2yGNx5550fqGoufxgsC4fDw+Px+LSmpqZ0Ds9LRNvxPC8nT/iIyMzhw4efEY/HN+fifERUHHY7W1lEXgKwT3cuICKrAFwej8cXduc8RNQ1kUjkoVQqtUVVe2RzvKomPM+7sKWlZV48Hs91PCIKuN1uu9xZDLIiIo9ba88bPnz4kSwFRIXT3NycUtW/Znn4MmPMcS0tLfNyGoqIisaenm/OqBiIyLu+77eEw+GbFi5c+DQALF6cs9udRNR1SwCcncHn/xvA5Hg8PktEur+UKREVrd0Wg3Q6/bLnebv8uKq2i8hyAMs8z7vnqKOOerSpqcnmOiSVHhHZaK3NaA6LMYZzU7ooGo3e297errLnRUjS1tpbKysrpzQ3N2/M15olRFQ8dvtTYOzYsUf4vn+tiGy11rYD2Cgi6wC85nne2n322ee5m2++uaMwUYkoE3V1dU+q6rG7+PD7IvK7SCRyfXNz8+sFDUZEgbbbEYOFCxc+D+DzBcpCRLm1BMBHioGIrFHVGzds2HDrsmXLtjjKRUQBlss11IkoQFKp1OJwOHyZiDwiIosB3NO5ABIRERGVG1WVurq6vV3nICIiIiIiIiIiIiIiIiIiIiIiKgi99pOViSmDz3Cdg4iIKFe08cherY2DP+s6x57sdq8EV+QH/9gKyBmJxiGnuc5CRETUXRobWdWmqfnV0dBK11n2JJDFAABEU3MAnb/1siGfdp2FiIgoW3rTyHAi2TofYt+WplUbXefZk8AWg6oZrz6pkJf8Drukdergo1znISIiypTGYqbtlfdvU9XTFHKL6zxdEdhiAABQ3KIie8PHn9sbjxzoOg4REVEmEu1/+LWF+bJAX66evmap6zxdEehiUC2RO4xouwL7pZH8a2Lq0P6uMxEREXVF65QhP1PoxQAg4v2+WLY0D3QxkBnPbQLMfABQxUD4+mdtPLKX61xERES70zp5yHfV6uUAYARpGMx2HKnLAl0MAMAq/nNPxkKPTCC5RGMjq1xmIiIi2pXWKYdcALX/t+33Crm3+qoX3nKZKROBLwY1M154UERe2PZ7VXwq0b5lgd40MuwyFxER0Y4SUw49S9S7VUVk25+JSf/WZaZMBb4YiIgaxXXb/5kCX0i8+sECjZ1U4SoXERHR9tomDxkNRbNVhLb9mUDWVE176U8uc2Uq8MUAACorauaIYNP2f6YqZ7Ul37pPZ/bp4SoXERERALROHnKuii6wKh95w2rEv65YJh1uUxTFQJqWt0Hldzv+uVWc3Lax7wMa69/XRS4iIqK2yUMuFrG3bz9SAACiurmyz5Y5rnJlqyiKAQB48G4wUH/HP7fQYxPtPR5qu+zQA1zkIiKi8pVoHDrFh/7Gqvz366mR38ml7yQcxOqWoikGlTNXvW7FLNjZxxQ4TH3zSHvjsEGFzkVEROWpdfKQmVbtVTv7mIH6noZ+XehMuVA0xQAAQh5+uauPWdWD0pp+mMsnExFRPmksZlobB92k0B/t8nMgCytnrnq9kLlypaiKQeW0NY8akSd39XEF9oPF37dOOeRThcxFRETlQW8aGW5rv/NOVXPR7j7PM7LLN7JBV1TFAAAU8n+7/biil7XeX1unDj21UJmIiKj06bWfrEy8uqXFwnx5d59ngCcqp69ZVqhcuVZ0xaD6mCPniehLu/scC1SL1cVtjUPHFSoXERGVLo0dt1fi3Q1/UsUZe/pcAXY676BYFF0xkHOafRGZsafPs6oRhT8vMXnI1ELkIiKi0pS8fOChifbN/1CVE/f0uQbyXOWMNYsKkStfiq4YAEDVQT1uM6Lr9/R5VsVY6LTE5EP/yP0ViIgoU4nGoZ/vSIceV+Cwrny+enJVsS1otKOiLAby9eUdCu/qrn6+hZyT2PrBsq2XHXZgPnMREVHpaG0c9H2of68qurSrrwAvVoe/NC/fufKtKIsBAFRH971FgLe7+vkqMjzt+09unXzYHoeCiIiofOl1p0dbJw+arWqutRCvq8eJsdOlqcnmM1shFG0xkKYH20X02owOUuxj4d/f1jjoG3mKRURERSwxdWj/tjdfelBhJmb4FcoGAAAgAElEQVRynAHWVR3U84585Sqkoi0GAFAVDd8owMZMjrFA2FdzY+vkwb/l1s1ERLRN22XDjlNfn7Iq/5PpsSL2avn68o585Cq0oi4G0rSqVfawrsGuKPD1xKtb/qZThu+T61xERFRcWqcccoH6HQ8qdP9MjzWCf1VGD7g1H7lcKOpiAABVFd4vDfTdbI5VxQlttu2pRONhI3Kdi4iIgk/n1XuJxkE/V+vdtuOWyV1nfipND7bnNpk7RV8MpGlVqxpMy/Z4C3wc8B9JNA7d7fKWRERUWtpiA/Zve/rZv1g1P8z2HAK8WBXdt2RGCwBAXAfIBY0Ni7Ql/TVW9aDunEcULdVe61dl+psbchSNiIgCqG3KIWOshm5R1T7dOY94+FLNVWuL/hHF7ZVEMQCAxOShEyzsnO6eRyBvQuzEmhkv3p+LXEREFBwaG1mVSL7/f3vaBKkrBHi6esaaY4t9QaMdFf2thG2qKr50h4H+s7vnUej+sPhL6+TB12hsWCQX2YiIyL1E42EjEsnW5bkoBQAgnkwttVIAlNCIAQC0TRlU61sTz9X5RHRFWFLnRqeveyFX5yQiosJSVUlMHfpDUUyzqjl5w2cEf6+esXZULs4VNCVVDACgtXHwo6r4VK7OZwRtAvvDqhkv/TZX5yQiosJoiw3YX5PROVbNKbk8rxfyPlU1bfU/cnnOoCiZWwnbeOJNzuX5rKLKV3Nja+OQuMb6983luYmIKH/aJg+us8mqZ3NdCgR2QamWAqAERwwAINE4+A9W8aVcn1cEb8GYiTVXvfDXXJ+biIhyQ2MjqxLtW65V4Ou5PrcBkl4Yh1VcufbVXJ87KEpuxAAAjIZ+ZKBbc31eVfRH2v9za+Ogm7TxyC7ttkVERIXT2jj4s4n2LSvzUQoAQI39RSmXAqBEi0HlzFWvQ3VmPs6tIqJqLkqgfXVr49Dx+bgGERFlRmP9+7Y2Dp6jir8pcGg+rmEE/6ruveWqfJw7SEryVgIA6LWfrGx7Z+MLH65smD8i+EsI0YsrZjz3Sj6vQ0REO5eYPGSSCn7e3cWK9kSAC2pmri2JHRR3p2SLAQC0Th18jvr4Y76v8+FtC/1p1cCevyiV3bWIiIIuOeXgwWkN32QVJ+f7WiJ4rHr6muNLcd2CHZV0MQCA1sZDH1SVEwtxLSN43njy9cppax4txPWIiMqRxoZF2tpTjYCZaoFovq8nqmrC/nFV0155Kt/XCoKSnGOwPTHh7xpRW4hrWcURfod9pHXy4N9q7Oi9C3FNIqJysnXyYScmkv4zFqapEKUAACAyu1xKAVAGIwYAkGgcdL1V8+1CXlOAtyH4Xs2MtXm/lUFEVOo0Nqx3or3jaiguVJGCvXYJsBEV6cNqml55t1DXdK0sioHO7NOjbWPvVRbysUJfW0T+FA6FfhC98p+rC31tIqJip7GYaUv+YZKFzoBin0Jf34h8pXrGmpLaVnlPyqIYAB+ugOUDLS6ubaC+Qm6RitAV1U2r3naRgYio2CSmDvkCfFxjoUe6uH4p74ewO2VTDACgdfKg+QpztqvrGyABtddU7bPl53LpOwlXOYiIgiwxddhw2NQ1uV7KOBMGSIZMx1HR6a+udZXBlbIqBm2xAfvbZOVqVezlMocAb4uYWNUxR/5ezmn2XWYhIgqKrZcdMcD3U1cK9Hyr4nRyvIH8uHrmmitdZnClrIoBALQ1Dvqmr+YG1zkAQIDVBjK5auaae1xnISJyRWPH7ZVof3+KiP2eValwnQeiq2oO3mt4ua5LU3bFQFUlMWXIslxuzZwDD3rScWnVjFefdB2EiKhQ9KaR4cQrrd8A8BOFBmL3WlFVzzMnVE5fs8x1FlfKrhgAQOvUoUeI1eVWNeI6yzaiqiL6Ry9sppb6Bh1ERG2NQ8dZ+DNUZZDrLNsTyI01M9d803UOl8qyGABAonHwZKuY4TrHjoxICvBvkmjl1VVNz73hOg8RUS4lpg75gvr2CoV80nWWHQn05eq+Hxxd7pPDy7YYaCxmEu1zH1bg066z7IwRSanqnFA4PLPiyn++7DoPEVG2VFW2Thk2xsK/TBUjXefZGSNqjZgTy/kWwjZlWwwAoP3yww/xOzqesUC16yy7YqA+xPxBw2Z6zc9W/9N1HiKirtJ59V5i+bNfEtipFnK46zy7I5Cra2aumew6RxCUdTEAgLbGQd/w1dzoOseeiKoCEjfh9LRyWrObiIqPxoZF2pLJCaqmUSGHuM6zJwbyXFWFd6w0rUq5zhIEZV8MAKB18uA/KfAF1zm6SgR/8dSbVjlz9UOusxARbaPXfrIy8d6Gr4nFpS6WoM+GEUlB9bjqmWufcZ0lKFgM8J+Fj55XRS/XWTIhwCMiMq16xpo/uc5CROVLZ/bp0bapzzeh+gML6ec6TyYM5LLqmWuucp0jSFgMOrU2Dh2vau9ynSMbIlhuYKZXHnNkC1dSJKJC0SnD90lg67ehekmxvbECAIH+o3rk8M/w5+ZHsRhsp7Vx8BxVTHCdI1tGdD2AmzTq/66ctgglosJqu+ywT6pvvwXVegtEXefJhkDfD4VlBNeN+W8sBtvRa/atTmzY+ylVHeo6S3d03jO724Tkhsppax51nYeIip9e+8nKtnc3jVfVbylwjOs83eWJ+WLVjBfmu84RRCwGO2idPORIgX3cQipdZ8kFUV0pxt5QFd37Lmla3uY6DxEVl/bLDz/ETycvVjUNCvR2nScnRH/TY8aL33IdI6hYDHYiMWXw16zFza5z5JKobhZjZoVCHTdGr3zlRdd5iCi4NBYzbam5p6niW7B6uoqUzGuFqK6s/tigT8p37ku6zhJUJfOPnWuJyYPmWpgvu86Ra6KqEPmLgdxQWfHlJdLUZF1nIqJg0Niw3omUfyFUL1bFQNd5ck0gW8LhjpF8c7R7LAa7oDP79Ehs6v100Db4yCUDrIOYm4wXuqNy2vPrXechosJTVWlvPOR4H6ELRXR8ILY9zhOBnFczc01RPn1WSCwGu5GYOvQY+PbRYp1121WiqmLkQQjuqLI97paZy993nYmI8is55cChHRo9XyDnWdWDXOfJNxG9pWbGi19znaMYsBjsQSnON9gdI9quKouNsbdXHtTzPvn68g7XmYgoN1qnHrwv/MiXIXpBUDczygcRLK+O9v+MND3Y7jpLMWAx6ILWxsE3quIbrnMUmgAbAfmjF8IdfOyRqDjpNftWJ97rMQbGO1/UnmohnutMBSV4L+RFRvJ2adexGHSB3jQynHhlywMKfMZ1FldE8Aqgd4YlfUd0+qtrXechol3TefVe29PPfU7hny8qZwd5B9l8MoK0Ue9z3FcmMywGXdQ69eB9xQ89VSwbg+STEXlSFbebirb5VU3r33Sdh4g+nES4dcrAYxWR8ao6XoH9XGdyTcRcUjPjhV+7zlFsWAwy0NZ48CcUoYdKedZuJj6ctGiegmKRerqo5qq1z7rORFRO9LrTo21vr/2sWq8WKrUK3d91pqAQYFbNzLUXus5RjFgMMpSYcuhEa2W26xxBZEReA3SRGiyqPrDHQ5y4SJR7OmX/Pm12rzNVbC2AL6iixnWmoDGij1ftP+gkLmKUHRaDLCQaB//KKr7jOkeQfbjSIu5T4y2q9qvv4yOQRNlLXj7w0I50pBbwa0VxfNlNIMyAAG+bkB5bNe3Ff7nOUqxYDLKg8+q9xPKV9yjkdNdZioEBOiD2QVVvkRcyiyqnrV7nOhNRkGksZtrTf/ik79vOWwQ4zHWmYmAEbYKOk6tmvPqk6yzFjMUgSxobVpPY2vGwigx3naXYiOAZQP8k8B6o6rNpmVz6TsJ1JiLXtl52xADfbj0ZVj4nkNMtpJ/rTMXEiFpRObtq5tq46yzFjsWgG9piA/bX9orH+aRC9gzQoSJPQLAUqkuro/0f5SIkVA4SsWH7adKOgtpREB1VysuvF4IY/W7N9Bevc52jFLAYdFPr5CFHQvQRVezlOkspMEASgsegdqkx4aUVEXlcmlalXOci6i6N9e+7NVV9sq8ySlRG8fZA7hiRX1XPWPM91zlKBYtBDrROHXqqWHuvVYRcZyk1RtAG2EeB0APiydLKUL+npOnBtOtcRHuijUf22qrJE1VkFBSfVbVHlNL2xUEhipbqyvHjuFNs7vCLNEcSUwZ/xVrc4jpHqRNBKyCPqOJxA3lSveRTNVe9+o7rXFTeNBYzKf/uIekO/xOQ9LGq5ngRHW5VjOtspcwAT1RV9BglTcvbXGcpJSwGOdQ6ZcjP1OrlrnOUGyO6XlWfFOBJFXmqOlr1lDQ9s9l1Lipd7Y1HDkwj+QkojlXgEwI5RqE9XOcqJyJ4BdH0p2qaXnnXdZZSw2KQY62Th/xGoRe7zlHORFUh8pKIPqXQJz21T1b0Tazg0w+UjbbLDj0AaTnWCj4BYFsZ6O06VzkTyJshiZxQMeO5V1xnKUUsBjmmsZhpa597uwXOdZ2F/j8D9SGyWhVPGrFP+eqtEi+1mrchaBudV++lnl0+0PfNYarmaIUcC+gnVNHfdTb6/0RkA8LmpJqfrf6n6yylisUgDzR2UiiRfGuBKka7zkK7J4JNAF4AZDUEqwX2Bc+LrI56X3yVk5lKk16zb3Xbpl5DNJ0+DJ43FKqHiepQiDnUqkZc56NdE8gWI6nPcQGj/GIxyBONnVTRlnzrPqs42XUWypwBkoCsBexqNeYFiKwW366u2rf3WvnBP7a6zkd71jr14H099Yaq4jCFN1Shh4liqKoO4NMBxceItls1p/eYuebvrrOUOn5z5JHO7NOjbVPfv1nVT7jOQrlhRC3UrFPYlyBmvSrWG0m/ARNaH1JvfWTvd9bL5A1bXOcsdRqLmbaOP+4rYgbAtwOs6sdE/AFQGaDAxyEyRBW9XOek3DCCNETHVk9/cbHrLOWAxSDPNDasd1t7x0MWcrjrLFQYAn1fgDdUzHqorhfBeqisV7FvhEMd6yNen/V8vGrXVFUSVxyyjyQjA0Q6BlgbGgDgYyJ2gKoMEGAAgP0tEHadlfLPiFpVc0HNzDV3uc5SLlgMCuDDpU/9pao61HUWCgYBNgJ4B8AmiG4EsEkgm6zKJun8bxh/o4HZZOBtSovdVBXed1MxLRetqoIrhvdM+lt7+db0UtheRm0vhekFSC9V2xvQXgqvl4HfS2F6CaQPVPtbIOo6P7knqiqefK16+trfu85STlgMCqR16sH7qg09AJVhrrNQ8TLQrQqzSWA3KWQTBB/AIiWiKYjpUNUUgJSITUG9DgVSMEiJRQcMUgpNwaJDDFKAptSaDmP8lFXjQfyIaCgs8CNWJAKYiKiEYdMR9RCBmrBAIqqIQGwYkIiojaiYMICIwFZCvb0VthcgvUR0by7wQ9nqvG33leqZa2a7zlJuWAwKqDU2sJ+0ew/wtgIR0a59WAq8huqZL9zmOks5YjEoMJ0yfJ82u/VvFnqk6yxEREFjoL6qTqy5+qU7XWcpVywGDmisf99Essf9qjjadRYioqAwUF/Fu6BmxgtzXWcpZywGjuiU/fsktPqvqjLCdRYiIteMIK3A+TUz1v7RdZZyx4lBjsj0NzdUR8OnGOAJ11mIiFwyIimB+TJLQTBwxMAxvWbf6sSGngtU8XnXWYiICk0ErTAYU3PV2r+5zkIf4oiBY3LpO4nqaGi0EbApE1F5EbxnvPQoloJgYTEIAGlalaqKjj/XGLnBdRYiokIwwLqIdHymatorT7nOQh/FWwkBk/jRoJgVc4XrHERE+WKg/5QQvlA17cV/uc5C/43FIIDaGgd9UyHXc9U4Iio1InisOho6S5pWbXSdhXaOLzwBVDXjpd9YmC8b0aJZF5+IaE9EdHF1tMcpLAXBxmIQUD1mrGkWLzTKQN91nYWIqLuM6i+ro+fWcWfR4OOthIDbetlhB9p0egn3VyCiYmQEaYG9pGrGS791nYW6hiMGAVc5bfW6qopenxaRP7nOQkSUCYG+D5gzWQqKC0cMioTOq/faVjz7K2v1W66zEBHtiYG8GjLeWdHpq1a5zkKZYTEoMq1TDv2OWFxrIZ7rLEREOyOCx6qlqk6mr3zPdRbKHG8lFJma6S9eB8+cKQBn9RJR4Agwq3r/Q0axFBQvjhgUqfbLBx+cTut87s5IREFgRFIi+E7V9DU3uc5C3cMRgyJVceXaV6v79TleYOe4zkJE5c1A3xAxJ7IUlAaOGJSAtslDLlbBL61qxHUWIiovBrK0ylR+ibcOSgdHDEpA1cw1N4pnTjICrjtORAUjwM+rRh51KktBaeGIQQlpnXrwvmLDf7CKk11nIaLSJZAtKvhKjxlrml1nodzjiEEJqbnq1XeqouM/ZwQ/MVDfdR4iKj1G5MlQODSCpaB0ccSgRG29bMinbVrvssCBrrMQUfETVYWYa6oH1lwuX1/e4ToP5Q+LQQnT2NF7tybbb4ZqvessRFS8RPAWoBNqZrx4v+sslH8sBmUg0XjIVwHvV1ZR5ToLERUXEdxbLVWTOMGwfLAYlInklAOHdmj0D6o42nUWIgo+AyQVMrlm5ppfuc5ChcXJh2UiOn3dC9XR0HFi7FWcmEhEuyOC5eqZY1kKyhNHDMpQ22UDj9W0N9tCDnedhYiCw4ikoPhZVcV+M6TpwbTrPOQGi0GZ0utOjybefDkmqj/iTo1EJMDTgEyqmbnmOddZyC0WgzLX1njwJ3yEZkNlmOssRFR4BuiA4GdV0f7TOUpAAIsBYdvowUtNovhfjh4QlQ8RXQEjk2quWvus6ywUHCwG9B+JxsNGQP3fWuA411mIKH9E0AqRpurIfr/kKAHtiMWAPkJjMbO1/Q9ft2qvUpG9XechotwSwULPi3y3ctrz611noWBiMaCdao0N7CfJ8C+s6vmusxBR9xmR16Dy7eqZLyxxnYWCjcWAdqt16iGjYEO/UdWhrrMQUeYM0KGCn1f36/0z+cE/trrOQ8HHYkB7pLFhkbZkx6VQmWKBatd5iKhrjMgDoVDo29Er/7nadRYqHiwG1GVtsQH722TFNAEmWBWumkkUUCJYaxQ/qpq5Nu46CxUfFgPKWKLxsBGAf61VnOw6CxH9fwJsBOSn1QNrfsOtkSlbLAaUtbYph4yx1rtagUNdZyEqZwbogOoNVabipzLjuU2u81BxYzGgbtGbRoYTr235FhQ/UUUv13mIyo0oWsKR9I+iV77youssVBpYDCgntPHIXgnZ+r9Q8x1V1LjOQ1TqDGSpMfhx5fQ1y1xnodLCYkA5pVOG79OmrZOh8k0LqXSdh6jUCPAoBD+umbH2AddZqDSxGFBeJKYO7Q+bngp4F1nViOs8RMVOBMvF+D+uvurl+1xnodLGYkB5tfWyIwb46dSPRdBgFSHXeYiKjYE8Jyb9k6rpL7e4zkLlgcWACqL98sEHd6T1f42igbcYiPbMiDwpYmdUXrV2oYio6zxUPlgMqKBaYwP7IRn6Dqx+i5s0Ef03EfwFxp9Rc9XLS11nofLEYkBO6Mw+PRKb9rlIYL9vFQe4zkPkkoH6ELkb8GZWz1i9wnUeKm8sBuTUh/sw+OcrcCk3aqJyY0TbFTI7FAr/vOLKf77sOg8RwGJAAaGq0jblsFMV9tsCPZN7MVApMyKvQXBjFbb8Xqa/ucF1HqLtsRhQ4LRfPvjgdBoXQ/EVBXq7zkOUC6KqENxvjP66MnLeYmlqsq4zEe0MiwEFll77ycq2dzeNV9VvKXCM6zxE2RDBBwLMDoVSv4le+doa13mI9oTFgIrC1imHfMrX0FehqFdoD9d5iPbEiD4OeLdWRc1d0rSq1XUeoq5iMaCiotfsW932717jILZBrZ6kIvwapsAQwVtQuT1s2mdFp697wXUeomzwh2oOqaqg8+9URHj/MM/aLx98cEeHTDSCiVb1INd5qDwZkZSqLhKDWVUjjv6znNPsu85E1B0sBl00e/bsQ0RkhO/7Q0VkqKoeCGCfzl97A/jILHoR2Qzg7W2/ROQlEXk6FAo9fd55560r+P9ACVNVSVw26GTY0PmAjuX2z5RvH04klGUA/lBdEZorTas2us5ElCssBrswa9asvUXkc6p6KoDPq+rBOTz9RhH5B4AlnuctnjBhwus5PHdZ05tGhtvWbT5FrTkHkDqWBMoVUVUY8ygUzSZk766a9uK/XGciygcWg+3MnTt3/2Qy+VVVPR3AJ1TVK8R1ReRZAAtV9fcXXnjh+kJcsxzoTSPDba9tOVWtPQcqdVyCmTLVOTLwGAyaTSR6d1XTc2+4zkSUbywGAG677bZjfd//vqrWAwi7yiEiPoAlxpjfTpgw4c+cp5A7GhsWaUulT1ErZwn0TAt83HUmCqYPVyM0fwdkiYmGW1gGqNyUbTGYN2+et3Xr1rHW2u+p6vGu8+xIRF4E8JNJkyb9kTur5V7r1KFHiLVnKnCmqH7aQgoyOkTBZKBvKGSJgSyprKj5mzQtb3OdiciVsiwGc+bMOd1ae72qHuI6y56IyEpjzNSJEyfe5zpLqdLGI3slTMcXxOqZUPt5C+nnOhPllwE6FHhcxNyrxi6puWrts64zEQVFWRWDu+66a99kMvkrVf2S6yyZEpG/RiKRr/GJhvxLThk2rMOmRwE4GZCTFdrXdSbqHiNIA7pc1SwVD3+v6rX5Ebn0nYTrXERBVBbFQFVlzpw5X1PVmapatBPQRKRVRH40ceLE3/L2QmGoqiQahx4B4GSIjoLiJO7fEHwfbmNsnlbo38X4S6t6bn5EJm/Y4joXUTEo+WIwa9asQ1X1VgCfcZ0lh5ZWVlaeP378+DddByk3qiqpqQMP7YD5H1E5DvD+B8DRVjXiOls5M8DrCjwhok8YDT1e0Xfjco4IEGWnpIvBbbfddlI6nV6AEnyHJyJveZ43dsKECY+7zlLuNDYssjWN4Tbt/48IjlPgWFF7KCc05odA/i3ir1TBEwZ4XCORJ6qbVr3tOhdRqSjZYjBr1qwLANyipf1OLiki32hoaJjtOgh9lMZOqmjreG+oavJI2NARED1CoEdalQGusxULAyQA/FNFnofoc1B9XqLh51kCiPKrJIvBrFmzrlDVmOschSIiVzU0NFzmOgftmU4e2bM91Hq4tXqYwg4Ui4EQ7xAFBqpqH9f5Cs2IpBT6GiCviOBlhb5irLxoJPLP6PRnX+VcGqLCK6liMG/evEgikbhVVc9zncWBqy+88MLJrkNQ9nTyyJ5t0jZQoANV9BCoP0DV7AeR/lC7n0D2s0C165xdZaC+Qt6D6FtQvA0xbwH6lkBesYpXQvBeqaiof0OamriQF1GAlEwxUFUze/bsZlU923UWV4wxP580adKlrnNQ/ujMPj1Sm/fqb23Ffr7n72es7a0wPRXoKSJ7QdFToT1VsZeo9hQxPRWIqmhYrIZFJAyRsFob3tWW1UaQhmqHinQA0gHYtAApVWkF9H1A3leRDwT2fYG+D5j3VeUDMXYzxL4LRN9CGG9Xof5dvugTFZ+SKQazZs36har+wHUO10RkWkNDw+Wuc1Dw6bx6D2+3hrBhXRiotNgfHfL15R2ucxGRWyVRDGbNmvVNVb3BdY6gMMacP2nSpDtd5yAiouJT9MVg9uzZZ6pqvFA7IRYDEWn3PO9kPspIRESZKupiMGfOnBHW2odVtWgmZBWKiLxdUVExkosgERFRJozrANmaN29epbW2maVg51R1v/b29t+7zkFERMWlaItBIpH4STHsjuiSqp526623ftV1DiIiKh5FeSvh9ttvPzqdTj+lqiHXWYrAllAodMSECRNedx2EiIiCr+hGDFTVpNPp37EUdFkP3/dvdB2CiIiKQ9EVg9mzZ1+iqp9wnaOYqOoZc+bMGeU6BxERBV9RFYPbb7+9P4ArXecoRtbamapalLeOiIiocIqqGPi+f4mq1rjOUYxU9ROzZ8/+ouscREQUbEVTDO65554qa+3XXecocmWz4yQREWWnaIrBhg0bJgLo7TpHMVPVw2fNmnWy6xxERBRcRVEMVFVU9Xuuc5QCVf2W6wxERBRcRVEMZs+efZaqDnadoxSIyJg5c+Yc4DoHEREFU1EUAwDfdR2gVKhqyFp7vuscREQUTIEvBrfddls/VeUz+LlV5zoAEREFU+CLQTqdrkUR5Cwmqvo/d911176ucxARUfAE/gVXRMa6zlCCTHt7+2jXIYiIKHgCXQyWLl0aAnCi6xylSEROc52BiIiCJ9DFYP369cO50mHeHOc6ABERBU+gi4G19gTXGUqVqg647bbb+rnOQUREwRL0YnCM6wylzPf9Y11nICKiYAl0MRCRYa4zlDIRGeE6AxERBUtgi0HnFsFDXOcoZap6oOsMREQULIEtBnfcccd+qlrtOkeJ2991ACIiCpbAFgMAnBiXfywGRET0EYEtBul0msUgz1SVxYCIiD4isMXAGNPXdYZSJyI9XWcgIqJgCWwxUNWw6wylTlUjrjMQEVGwBLYYAPBcBygDZt68efx7JiKi/whsMbDW8gWrAPbZZx9xnYGIiIIjsMVARNpcZygDyVGjRqVdhyAiouAIbDEAsNl1gFInIltcZyAiomAJbDEQkfddZyh1qvqB6wxERBQsgS0GAN52HaAMrHcdgIiIgiWwxeDAAw9cJyK8/51HIvKa6wxERBQsgS0Go0aNSqvq665zlLjXXAcgIqJgCWwx6LTGdYBSJiLPuc5ARETBEvRi8KTrAKVMVZe7zkBERMES6GIgIo+7zlDCNjY0NLzmOgQREQVLoItBNBp9QkTUdY5SJCJLXWcgIqLgCXQxOPfcc/8N4BHXOUqRiCx0nYGIiIIn0MWgU7PrACWoo6qqarHrEEREFDyBLwYVFRXzeTsht0Rk6TnnnMOVJYmI6L8EvhiMHz/+TVVd5jpHiVngOgAREQVT4IsBABhjeDshRzpHX+KucxARUTAVRTGIRqN383ZCztzf0NDAfSiIiGiniqIYjB8//k1wEmJOeJ43zXUGIiIKrqIoBgAQDkxL0lcAAAOTSURBVIebAFjXOYqZiDw8YcKEB13nICKi4CqaYnD++eevAvBH1zmK3M9cByAiomArmmIAAJFIpElEfNc5itTjDQ0Nf3UdgoiIgq2oisH555+/BsBdrnMUI2MMRwuIiGiPiqoYAEAoFPopgA7XOYrM0kmTJi1xHYKIiIKv6IrBBRdc8JKIXOE6R7EQkQ+i0WiD6xxERFQciq4YAMCkSZNmiMjDrnMUie+ed95561yHICKi4lCUxUBEbCQSuQAA1/vfDRGJNzQ0zHadg4iIikdRFgMAOO+889aJyDdd5wiw9zzPu8h1CCIiKi5FWwwAoKGh4S4RudN1jqARETXGfHXChAnvus5CRETFpaiLAQD07t37YgBPuc4RJCLyvUmTJi1ynYOIiIpP0ReDurq6LTU1NV8QkWddZwkCEbli0qRJ17nOQURExanoiwEAnHPOORs9zzsVwBrXWVwSkV81NDQ0uc5BRETFS1wHyKU5c+Yc4Pv+QwAGus5SaCIyZ9KkSQ3cnpqIiLqjJEYMtpk4ceK/RORzIvKG6yyFJCJ3VVdXf4WlgIiIuqukRgy2mTt37v7t7e3zVPV411nyqXNDqSkNDQ3XuM5CRESloSSLAQAsXbo09Nprr12jqt9znSUfRGSDMebLEydOvN91FiIiKh0lWwy2mTVrVr2q/h5AD9dZckVEVgIY29DQ8JrrLEREVFpKvhgAwKxZs4aq6nwAw1xn6Y7OOQSzqqurv33OOedsdZ2HiIhKT1kUAwCYNWtWBYDvAZiiqnu5zpMpEXnSGPPdiRMnPuY6CxERla6yKQbb3Hbbbf18328C8DVV9Vzn2RMReRvAlEmTJs3hUwdERJRvZVcMtrnjjjuGdXR0XKOqZ7jOsgtJEfll7969p9XV1W1xHYaIiMpD2RaDbWbNmnUCPhw9GAegynUeEVmrqr+rqamZc84557znOg8REZWXsi8G28Tj8R4bNmz4kog0qOqnC3ltEWkHMN/zvN9NmDDhwUJem4iIaHssBjtxxx13DOno6LhAVb8A4BjkZ4XIdSLyiIg8FA6Hm88777xNebgGERFRRlgM9mDWrFl7q+pJIjISwFGdvw5S1Uz+7tpE5AURedRa+0gkEll2/vnnl9WyzUREVBxYDLLw1FNPhVetWtVfVQ/wfb+fiFSqatQYEwXQDiChqglVfdfzvHUTJ07c4DozERERERERERERERERERFRN/0/yMIEjEUSqhkAAAAASUVORK5CYII=;fontColor=default;fontSize=11;" parent="gsRz97ZzxrVawrSgIsjQ-5" vertex="1">
          <mxGeometry x="21.99722222222218" y="61.71428571428571" width="34.53" height="40" as="geometry" />
        </mxCell>
        <mxCell id="Wg8RFO9psuNznAwOXjFQ-14" value="&lt;font style=&quot;font-size: 11px;&quot;&gt;FL Portal&lt;/font&gt;" style="sketch=0;pointerEvents=1;shadow=0;dashed=0;html=1;strokeColor=none;fillColor=#505050;labelPosition=center;verticalLabelPosition=bottom;verticalAlign=top;outlineConnect=0;align=center;shape=mxgraph.office.concepts.web_page;" parent="gsRz97ZzxrVawrSgIsjQ-5" vertex="1">
          <mxGeometry x="69.02" y="68" width="25.98" height="34" as="geometry" />
        </mxCell>
        <mxCell id="Wg8RFO9psuNznAwOXjFQ-17" value="&lt;b&gt;Virtual Research Environment&lt;/b&gt;" style="text;html=1;align=center;verticalAlign=middle;whiteSpace=wrap;rounded=0;" parent="gsRz97ZzxrVawrSgIsjQ-5" vertex="1">
          <mxGeometry x="10.28" y="10" width="179.44444444444446" height="34.28571428571428" as="geometry" />
        </mxCell>
        <mxCell id="gsRz97ZzxrVawrSgIsjQ-42" value="&lt;font style=&quot;font-size: 11px;&quot;&gt;Communication&lt;/font&gt;&lt;div style=&quot;font-size: 11px;&quot;&gt;&lt;font style=&quot;font-size: 11px;&quot;&gt;Server&lt;/font&gt;&lt;/div&gt;" style="aspect=fixed;sketch=0;html=1;dashed=0;whitespace=wrap;verticalLabelPosition=bottom;verticalAlign=top;fillColor=#2875E2;strokeColor=#ffffff;points=[[0.005,0.63,0],[0.1,0.2,0],[0.9,0.2,0],[0.5,0,0],[0.995,0.63,0],[0.72,0.99,0],[0.5,1,0],[0.28,0.99,0]];shape=mxgraph.kubernetes.icon2;kubernetesLabel=1;prIcon=api" parent="gsRz97ZzxrVawrSgIsjQ-5" vertex="1">
          <mxGeometry x="134" y="63" width="33.93" height="32.57" as="geometry" />
        </mxCell>
        <mxCell id="gsRz97ZzxrVawrSgIsjQ-7" style="edgeStyle=orthogonalEdgeStyle;rounded=0;orthogonalLoop=1;jettySize=auto;html=1;entryX=0.16;entryY=0.55;entryDx=0;entryDy=0;entryPerimeter=0;" parent="1" source="Wg8RFO9psuNznAwOXjFQ-15" target="Wg8RFO9psuNznAwOXjFQ-13" edge="1">
          <mxGeometry relative="1" as="geometry" />
        </mxCell>
        <mxCell id="gsRz97ZzxrVawrSgIsjQ-10" style="edgeStyle=orthogonalEdgeStyle;rounded=0;orthogonalLoop=1;jettySize=auto;html=1;exitX=0;exitY=0.75;exitDx=0;exitDy=0;entryX=0.875;entryY=0.5;entryDx=0;entryDy=0;entryPerimeter=0;" parent="1" source="Wg8RFO9psuNznAwOXjFQ-23" target="Wg8RFO9psuNznAwOXjFQ-13" edge="1">
          <mxGeometry relative="1" as="geometry" />
        </mxCell>
        <mxCell id="gsRz97ZzxrVawrSgIsjQ-31" value="(2) Register" style="edgeLabel;html=1;align=center;verticalAlign=middle;resizable=0;points=[];" parent="gsRz97ZzxrVawrSgIsjQ-10" vertex="1" connectable="0">
          <mxGeometry x="-0.2014" relative="1" as="geometry">
            <mxPoint x="-6" as="offset" />
          </mxGeometry>
        </mxCell>
        <mxCell id="gsRz97ZzxrVawrSgIsjQ-37" style="edgeStyle=orthogonalEdgeStyle;rounded=0;orthogonalLoop=1;jettySize=auto;html=1;entryX=1;entryY=0.5;entryDx=0;entryDy=0;" parent="1" edge="1" target="jy6STaErRXUeZZu7iDO4-1">
          <mxGeometry relative="1" as="geometry">
            <mxPoint x="590" y="-90" as="targetPoint" />
            <Array as="points">
              <mxPoint x="640" y="-110" />
              <mxPoint x="547" y="-110" />
            </Array>
            <mxPoint x="640" y="-248.5" as="sourcePoint" />
          </mxGeometry>
        </mxCell>
        <mxCell id="gsRz97ZzxrVawrSgIsjQ-38" value="&lt;div&gt;(7) Fetch Registration &amp;amp;&lt;/div&gt;&lt;div&gt;Training Docker Containers&lt;/div&gt;" style="edgeLabel;html=1;align=center;verticalAlign=middle;resizable=0;points=[];" parent="gsRz97ZzxrVawrSgIsjQ-37" vertex="1" connectable="0">
          <mxGeometry x="-0.2653" y="1" relative="1" as="geometry">
            <mxPoint y="3" as="offset" />
          </mxGeometry>
        </mxCell>
        <mxCell id="gsRz97ZzxrVawrSgIsjQ-18" style="edgeStyle=orthogonalEdgeStyle;rounded=0;orthogonalLoop=1;jettySize=auto;html=1;exitX=0.5;exitY=1;exitDx=0;exitDy=0;entryX=0.5;entryY=0;entryDx=0;entryDy=0;" parent="1" source="Wg8RFO9psuNznAwOXjFQ-23" target="jy6STaErRXUeZZu7iDO4-1" edge="1">
          <mxGeometry relative="1" as="geometry">
            <mxPoint x="516" y="-128.79999999999995" as="targetPoint" />
          </mxGeometry>
        </mxCell>
        <mxCell id="gsRz97ZzxrVawrSgIsjQ-19" value="(5) Provision&amp;nbsp;&lt;div&gt;Infrastructure with Data&lt;/div&gt;" style="edgeLabel;html=1;align=center;verticalAlign=middle;resizable=0;points=[];" parent="gsRz97ZzxrVawrSgIsjQ-18" vertex="1" connectable="0">
          <mxGeometry x="-0.1395" y="-2" relative="1" as="geometry">
            <mxPoint as="offset" />
          </mxGeometry>
        </mxCell>
        <mxCell id="gsRz97ZzxrVawrSgIsjQ-40" style="edgeStyle=orthogonalEdgeStyle;rounded=0;orthogonalLoop=1;jettySize=auto;html=1;entryX=1;entryY=0.5;entryDx=0;entryDy=0;" parent="1" edge="1" target="jy6STaErRXUeZZu7iDO4-1">
          <mxGeometry relative="1" as="geometry">
            <mxPoint x="639.9000000000001" y="-41" as="sourcePoint" />
            <mxPoint x="560" y="-80" as="targetPoint" />
            <Array as="points">
              <mxPoint x="640" y="-111" />
            </Array>
          </mxGeometry>
        </mxCell>
        <mxCell id="gsRz97ZzxrVawrSgIsjQ-41" value="(8) Fetch Private Data" style="edgeLabel;html=1;align=center;verticalAlign=middle;resizable=0;points=[];" parent="gsRz97ZzxrVawrSgIsjQ-40" vertex="1" connectable="0">
          <mxGeometry x="-0.582" y="3" relative="1" as="geometry">
            <mxPoint y="1" as="offset" />
          </mxGeometry>
        </mxCell>
        <mxCell id="p1wfj9jPyC4YvRz6hn-k-2" value="" style="sketch=0;outlineConnect=0;fontColor=#232F3E;gradientColor=none;fillColor=#01A88D;strokeColor=none;dashed=0;verticalLabelPosition=bottom;verticalAlign=top;align=center;html=1;fontSize=12;fontStyle=0;aspect=fixed;pointerEvents=1;shape=mxgraph.aws4.sagemaker_model;" parent="1" vertex="1">
          <mxGeometry x="176" y="-230" width="20" height="20" as="geometry" />
        </mxCell>
        <mxCell id="Wg8RFO9psuNznAwOXjFQ-34" value="Private Data" style="verticalLabelPosition=bottom;aspect=fixed;html=1;shape=mxgraph.salesforce.data;fontSize=11;" parent="1" vertex="1">
          <mxGeometry x="626" y="-40" width="28.75" height="35.5" as="geometry" />
        </mxCell>
        <mxCell id="Wg8RFO9psuNznAwOXjFQ-81" value="Data Provider Infrastructure" style="text;html=1;align=center;verticalAlign=middle;whiteSpace=wrap;rounded=0;" parent="1" vertex="1">
          <mxGeometry x="209.99954545454545" y="19" width="186.52090909090907" height="20" as="geometry" />
        </mxCell>
        <mxCell id="gsRz97ZzxrVawrSgIsjQ-60" style="edgeStyle=orthogonalEdgeStyle;rounded=0;orthogonalLoop=1;jettySize=auto;html=1;exitX=0;exitY=0.75;exitDx=0;exitDy=0;entryX=0.25;entryY=1;entryDx=0;entryDy=0;" parent="1" source="Wg8RFO9psuNznAwOXjFQ-83" target="Wg8RFO9psuNznAwOXjFQ-15" edge="1">
          <mxGeometry relative="1" as="geometry" />
        </mxCell>
        <mxCell id="gsRz97ZzxrVawrSgIsjQ-83" style="edgeStyle=orthogonalEdgeStyle;rounded=0;orthogonalLoop=1;jettySize=auto;html=1;exitX=0;exitY=0.25;exitDx=0;exitDy=0;entryX=0.75;entryY=1;entryDx=0;entryDy=0;startArrow=classic;startFill=1;endArrow=none;endFill=0;" parent="1" source="Wg8RFO9psuNznAwOXjFQ-83" target="Wg8RFO9psuNznAwOXjFQ-15" edge="1">
          <mxGeometry relative="1" as="geometry" />
        </mxCell>
        <mxCell id="Wg8RFO9psuNznAwOXjFQ-83" value="" style="swimlane;startSize=0;" parent="1" vertex="1">
          <mxGeometry x="210" y="39" width="520" height="192" as="geometry" />
        </mxCell>
        <mxCell id="gsRz97ZzxrVawrSgIsjQ-47" value="Private Data" style="verticalLabelPosition=bottom;aspect=fixed;html=1;shape=mxgraph.salesforce.data;fontSize=11;" parent="Wg8RFO9psuNznAwOXjFQ-83" vertex="1">
          <mxGeometry x="228" y="18.000000000000007" width="28.75" height="35.5" as="geometry" />
        </mxCell>
        <mxCell id="gsRz97ZzxrVawrSgIsjQ-48" value="FL Code" style="shape=image;html=1;verticalAlign=top;verticalLabelPosition=bottom;labelBackgroundColor=#ffffff;imageAspect=0;aspect=fixed;image=https://cdn4.iconfinder.com/data/icons/miu-black-social-2/60/github-128.png;fontSize=11;" parent="Wg8RFO9psuNznAwOXjFQ-83" vertex="1">
          <mxGeometry x="16" y="11.999999999999996" width="45.5" height="45.5" as="geometry" />
        </mxCell>
        <mxCell id="gsRz97ZzxrVawrSgIsjQ-49" value="&lt;font color=&quot;#000000&quot; style=&quot;font-size: 11px;&quot;&gt;Global Model&lt;/font&gt;" style="sketch=0;outlineConnect=0;fontColor=#232F3E;gradientColor=none;fillColor=#01A88D;strokeColor=none;dashed=0;verticalLabelPosition=bottom;verticalAlign=top;align=center;html=1;fontSize=11;fontStyle=0;aspect=fixed;pointerEvents=1;shape=mxgraph.aws4.sagemaker_model;" parent="Wg8RFO9psuNznAwOXjFQ-83" vertex="1">
          <mxGeometry x="82" y="21.999999999999996" width="35.5" height="35.5" as="geometry" />
        </mxCell>
        <mxCell id="gsRz97ZzxrVawrSgIsjQ-50" value="&lt;font color=&quot;#000000&quot; style=&quot;font-size: 11px;&quot;&gt;Local Model&lt;/font&gt;" style="sketch=0;outlineConnect=0;fontColor=#232F3E;gradientColor=none;fillColor=#01A88D;strokeColor=none;dashed=0;verticalLabelPosition=bottom;verticalAlign=top;align=center;html=1;fontSize=11;fontStyle=0;aspect=fixed;pointerEvents=1;shape=mxgraph.aws4.sagemaker_model;" parent="Wg8RFO9psuNznAwOXjFQ-83" vertex="1">
          <mxGeometry x="154" y="21.999999999999996" width="35.5" height="35.5" as="geometry" />
        </mxCell>
        <mxCell id="gsRz97ZzxrVawrSgIsjQ-63" value="(11) FL training with private data" style="text;html=1;align=left;verticalAlign=top;whiteSpace=wrap;rounded=0;spacingTop=0;spacing=2;fontSize=11;fillColor=#d5e8d4;strokeColor=#82b366;" parent="Wg8RFO9psuNznAwOXjFQ-83" vertex="1">
          <mxGeometry x="30" y="98" width="195.25" height="28" as="geometry" />
        </mxCell>
        <mxCell id="gsRz97ZzxrVawrSgIsjQ-65" value="(12) Model aggregation" style="text;html=1;align=left;verticalAlign=top;whiteSpace=wrap;rounded=0;spacingTop=0;spacing=2;fontSize=11;fillColor=#d5e8d4;strokeColor=#82b366;" parent="Wg8RFO9psuNznAwOXjFQ-83" vertex="1">
          <mxGeometry x="265.14" y="98" width="195.25" height="24" as="geometry" />
        </mxCell>
        <mxCell id="gsRz97ZzxrVawrSgIsjQ-66" value="(13) Fetch aggregated model" style="text;html=1;align=left;verticalAlign=top;whiteSpace=wrap;rounded=0;spacingTop=0;spacing=2;fontSize=11;fillColor=#d5e8d4;strokeColor=#82b366;" parent="Wg8RFO9psuNznAwOXjFQ-83" vertex="1">
          <mxGeometry x="30" y="144" width="194.87" height="28" as="geometry" />
        </mxCell>
        <mxCell id="gsRz97ZzxrVawrSgIsjQ-67" value="(14) Repeat training and aggregation" style="text;html=1;align=left;verticalAlign=top;whiteSpace=wrap;rounded=0;spacingTop=0;spacing=2;fontSize=11;fillColor=#d5e8d4;strokeColor=#82b366;" parent="Wg8RFO9psuNznAwOXjFQ-83" vertex="1">
          <mxGeometry x="265.14" y="142" width="194.87" height="30" as="geometry" />
        </mxCell>
        <mxCell id="jy6STaErRXUeZZu7iDO4-10" value="&lt;font style=&quot;font-size: 11px;&quot;&gt;Registration&lt;/font&gt;" style="html=1;whiteSpace=wrap;strokeColor=none;fillColor=#0079D6;labelPosition=center;verticalLabelPosition=middle;verticalAlign=top;align=center;fontSize=12;outlineConnect=0;spacingTop=-6;fontColor=#FFFFFF;sketch=0;shape=mxgraph.sitemap.services;aspect=fixed;" vertex="1" parent="Wg8RFO9psuNznAwOXjFQ-83">
          <mxGeometry x="290" y="18" width="100" height="58.4" as="geometry" />
        </mxCell>
        <mxCell id="jy6STaErRXUeZZu7iDO4-7" value="&lt;font style=&quot;font-size: 11px;&quot;&gt;FL training&lt;/font&gt;" style="html=1;whiteSpace=wrap;strokeColor=none;fillColor=#0079D6;labelPosition=center;verticalLabelPosition=middle;verticalAlign=top;align=center;fontSize=12;outlineConnect=0;spacingTop=-6;fontColor=#FFFFFF;sketch=0;shape=mxgraph.sitemap.services;aspect=fixed;" vertex="1" parent="Wg8RFO9psuNznAwOXjFQ-83">
          <mxGeometry x="410" y="18" width="100" height="58.4" as="geometry" />
        </mxCell>
        <mxCell id="gsRz97ZzxrVawrSgIsjQ-61" value="&lt;span style=&quot;color: rgb(0, 0, 0); font-family: Helvetica; font-style: normal; font-variant-ligatures: normal; font-variant-caps: normal; font-weight: 400; letter-spacing: normal; orphans: 2; text-indent: 0px; text-transform: none; widows: 2; word-spacing: 0px; -webkit-text-stroke-width: 0px; white-space: nowrap; background-color: rgb(255, 255, 255); text-decoration-thickness: initial; text-decoration-style: initial; text-decoration-color: initial; float: none; display: inline !important;&quot;&gt;&lt;font style=&quot;font-size: 11px;&quot;&gt;Data Scientists&lt;/font&gt;&lt;/span&gt;" style="text;whiteSpace=wrap;html=1;align=center;verticalAlign=middle;" parent="1" vertex="1">
          <mxGeometry x="5" y="-297.5" width="90" height="20" as="geometry" />
        </mxCell>
        <mxCell id="Wg8RFO9psuNznAwOXjFQ-27" value="&lt;font style=&quot;font-size: 11px;&quot;&gt;Data Providers&lt;/font&gt;" style="text;html=1;align=center;verticalAlign=middle;whiteSpace=wrap;rounded=0;" parent="1" vertex="1">
          <mxGeometry x="466.6" y="-317" width="85" height="25" as="geometry" />
        </mxCell>
        <mxCell id="gsRz97ZzxrVawrSgIsjQ-62" value="(10) Initialise FL Training" style="text;html=1;align=center;verticalAlign=middle;whiteSpace=wrap;rounded=0;fontSize=11;" parent="1" vertex="1">
          <mxGeometry x="70" y="62" width="130" height="20" as="geometry" />
        </mxCell>
        <mxCell id="gsRz97ZzxrVawrSgIsjQ-70" value="&lt;font style=&quot;text-wrap: nowrap; font-size: 11px;&quot; color=&quot;#000000&quot;&gt;(3) Configure Model&lt;/font&gt;&lt;div style=&quot;text-wrap: nowrap; color: rgb(35, 47, 62); font-size: 11px;&quot;&gt;&lt;font color=&quot;#000000&quot;&gt;Parameters&lt;/font&gt;&lt;/div&gt;" style="text;html=1;align=center;verticalAlign=middle;whiteSpace=wrap;rounded=0;" parent="1" vertex="1">
          <mxGeometry x="99.99999999999999" y="-241" width="90" height="20" as="geometry" />
        </mxCell>
        <mxCell id="gsRz97ZzxrVawrSgIsjQ-89" style="edgeStyle=orthogonalEdgeStyle;rounded=0;orthogonalLoop=1;jettySize=auto;html=1;exitX=1;exitY=0.5;exitDx=0;exitDy=0;entryX=0;entryY=0.5;entryDx=0;entryDy=0;" parent="1" source="gsRz97ZzxrVawrSgIsjQ-85" target="jy6STaErRXUeZZu7iDO4-1" edge="1">
          <mxGeometry relative="1" as="geometry">
            <mxPoint x="480.4000000000001" y="-111" as="targetPoint" />
          </mxGeometry>
        </mxCell>
        <mxCell id="gsRz97ZzxrVawrSgIsjQ-85" value="VCS" style="shape=image;html=1;verticalAlign=top;verticalLabelPosition=bottom;labelBackgroundColor=#ffffff;imageAspect=0;aspect=fixed;image=https://cdn4.iconfinder.com/data/icons/miu-black-social-2/60/github-128.png;fontSize=11;" parent="1" vertex="1">
          <mxGeometry x="303.25" y="-133.75" width="45.5" height="45.5" as="geometry" />
        </mxCell>
        <mxCell id="gsRz97ZzxrVawrSgIsjQ-87" style="edgeStyle=orthogonalEdgeStyle;rounded=0;orthogonalLoop=1;jettySize=auto;html=1;exitX=0.55;exitY=0.95;exitDx=0;exitDy=0;exitPerimeter=0;entryX=0.5;entryY=0;entryDx=0;entryDy=0;" parent="1" source="Wg8RFO9psuNznAwOXjFQ-13" target="gsRz97ZzxrVawrSgIsjQ-85" edge="1">
          <mxGeometry relative="1" as="geometry" />
        </mxCell>
        <mxCell id="gsRz97ZzxrVawrSgIsjQ-88" value="(4) Update FL code" style="edgeLabel;html=1;align=center;verticalAlign=middle;resizable=0;points=[];" parent="gsRz97ZzxrVawrSgIsjQ-87" vertex="1" connectable="0">
          <mxGeometry x="0.1312" relative="1" as="geometry">
            <mxPoint as="offset" />
          </mxGeometry>
        </mxCell>
        <mxCell id="jy6STaErRXUeZZu7iDO4-1" value="" style="image;aspect=fixed;perimeter=ellipsePerimeter;html=1;align=center;shadow=0;dashed=0;fontColor=#4277BB;labelBackgroundColor=default;fontSize=12;spacingTop=3;image=img/lib/ibm/infrastructure/infrastructure_services.svg;" vertex="1" parent="1">
          <mxGeometry x="487" y="-140.75" width="60" height="60" as="geometry" />
        </mxCell>
        <mxCell id="jy6STaErRXUeZZu7iDO4-2" value="IaC" style="text;html=1;align=center;verticalAlign=middle;whiteSpace=wrap;rounded=0;" vertex="1" parent="1">
          <mxGeometry x="464.6" y="-98" width="40" height="30" as="geometry" />
        </mxCell>
        <mxCell id="jy6STaErRXUeZZu7iDO4-3" value="" style="sketch=0;outlineConnect=0;fontColor=#232F3E;gradientColor=none;fillColor=#ED7100;strokeColor=none;dashed=0;verticalLabelPosition=bottom;verticalAlign=top;align=center;html=1;fontSize=12;fontStyle=0;aspect=fixed;pointerEvents=1;shape=mxgraph.aws4.container_1;" vertex="1" parent="1">
          <mxGeometry x="601.52" y="-297.5" width="77.71" height="50.19" as="geometry" />
        </mxCell>
        <mxCell id="jy6STaErRXUeZZu7iDO4-4" value="Container Hub" style="text;html=1;align=center;verticalAlign=middle;whiteSpace=wrap;rounded=0;" vertex="1" parent="1">
          <mxGeometry x="600.38" y="-322" width="80" height="30" as="geometry" />
        </mxCell>
      </root>
    </mxGraphModel>
  </diagram>
</mxfile>
